<?xml version="1.0" encoding="UTF-8" standalone="no"?>
<svg width="122px" height="71px" viewBox="0 0 122 71" version="1.1" xmlns="http://www.w3.org/2000/svg" xmlns:xlink="http://www.w3.org/1999/xlink" xmlns:sketch="http://www.bohemiancoding.com/sketch/ns">
    <!-- Generator: Sketch 3.3.2 (12043) - http://www.bohemiancoding.com/sketch -->
    <title>gray</title>
    <desc>Created with Sketch.</desc>
    <defs></defs>
    <g id="Page-1" stroke="none" stroke-width="1" fill="none" fill-rule="evenodd" sketch:type="MSPage">
        <g id="gray" sketch:type="MSLayerGroup">
            <path d="M1,50 L121,50" id="Line" stroke="#555555" stroke-width="2" stroke-linecap="square" sketch:type="MSShapeGroup"></path>
            <rect id="Rectangle-1-Copy" fill="#555555" sketch:type="MSShapeGroup" x="109" y="58" width="13" height="13"></rect>
            <rect id="Rectangle-1-Copy-3" fill="#555555" sketch:type="MSShapeGroup" x="54" y="58" width="13" height="13"></rect>
            <rect id="Rectangle-1-Copy-2" fill="#555555" sketch:type="MSShapeGroup" x="0" y="58" width="13" height="13"></rect>
            <path d="M9.62109375,2.75097656 C12.1601689,1.49771509 14.9433442,0.87109375 17.9707031,0.87109375 C20.9004053,0.87109375 23.5330287,1.54654272 25.8686523,2.89746094 C28.204276,4.24837915 30.0719331,6.03058789 31.4716797,8.24414062 C33.1969487,10.9948054 34.0595703,13.9732913 34.0595703,17.1796875 C34.0595703,19.2793074 33.6119836,21.4399303 32.7167969,23.6616211 C31.8216101,25.8833119 30.6700917,27.7062103 29.262207,29.1303711 C27.8543224,30.5545319 26.4057692,31.616533 24.9165039,32.3164062 C23.4272386,33.0162795 22.2594443,33.4150386 21.4130859,33.5126953 C20.8271455,33.5940759 20.3958347,33.7080071 20.1191406,33.8544922 C20.7864617,34.6520222 21.9298422,35.6855405 23.5493164,36.9550781 C25.1687906,38.2246157 26.7678958,39.2093064 28.3466797,39.9091797 C28.4931648,39.9580081 28.7617168,40.0800771 29.1523438,40.2753906 C30.0149783,40.6985698 30.8369102,41.072915 31.6181641,41.3984375 L32.1796875,41.6181641 L32.3994141,41.6425781 L33.0341797,41.9111328 C33.8805381,42.2692075 34.6617803,42.5621733 35.3779297,42.7900391 C35.3942058,42.9365242 35.4023438,43.0504553 35.4023438,43.1318359 L35.3779297,43.4248047 L35.3779297,43.8642578 C34.8570938,43.8805339 34.5397141,43.8886719 34.4257812,43.8886719 C32.9283779,43.8886719 31.1909279,43.607913 29.2133789,43.0463867 C27.23583,42.4848605 25.4210695,41.740239 23.769043,40.8125 C22.1170165,39.884761 20.3226008,38.6477942 18.3857422,37.1015625 C17.0836523,36.0436145 16.0013064,35.0100962 15.1386719,34.0009766 C12.2903503,33.5940735 9.72283044,32.6093828 7.43603516,31.046875 C5.14923987,29.4843672 3.39958289,27.5475376 2.18701172,25.2363281 C0.974440552,22.9251187 0.368164062,20.5569783 0.368164062,18.1318359 C0.368164062,15.2835144 1.11685449,12.4189597 2.61425781,9.53808594 C4.11166113,6.65721216 6.44724976,4.39486499 9.62109375,2.75097656 L9.62109375,2.75097656 Z M14.40625,32.7558594 C15.3014368,32.9186206 16.1396445,33 16.9208984,33 C18.711272,33 20.318515,32.7233101 21.7426758,32.1699219 C23.1668365,31.6165337 24.3020791,30.900395 25.1484375,30.0214844 C26.2552139,28.8658796 27.2073528,27.2382917 28.0048828,25.1386719 C28.8024128,23.039052 29.2011719,20.4104976 29.2011719,17.2529297 C29.2011719,14.7626829 28.8349646,12.4921978 28.1025391,10.4414062 C27.6142554,9.02538354 26.8004614,7.60124414 25.6611328,6.16894531 C24.5218042,4.73664648 23.337734,3.68278333 22.1088867,3.00732422 C20.8800394,2.33186511 19.329762,1.99414063 17.4580078,1.99414063 C15.2607312,1.99414063 13.2018325,2.56379639 11.28125,3.703125 C9.36066748,4.84245361 7.75749341,6.8199729 6.47167969,9.63574219 C5.65787354,11.4261157 5.25097656,13.9163252 5.25097656,17.1064453 C5.25097656,19.710625 5.7026322,22.2537311 6.60595703,24.7358398 C7.50928186,27.2179486 8.79100732,29.2239507 10.4511719,30.7539062 C11.4114631,31.649093 12.7298093,32.3164041 14.40625,32.7558594 L14.40625,32.7558594 Z M75.8092446,3.36132812 L76.0777993,7.07226562 C76.1754561,8.19531812 76.2242837,8.96028442 76.2242837,9.3671875 L75.5406899,9.48925781 C74.4501897,7.01528711 73.0952228,5.15983691 71.4757485,3.92285156 C69.8562743,2.68586621 67.874686,2.06738281 65.5309243,2.06738281 C62.6663267,2.06738281 60.4365313,2.41731421 58.8414712,3.1171875 C56.5302617,4.11003101 54.5527424,5.83527417 52.908854,8.29296875 C51.2649656,10.7506633 50.4430337,13.7128733 50.4430337,17.1796875 C50.4430337,19.1816506 50.7441375,20.9801353 51.346354,22.5751953 C51.9485706,24.1702554 52.7989852,25.6554293 53.8976235,27.0307617 C54.9962618,28.4060941 56.2942632,29.5983022 57.7916665,30.6074219 C58.7682339,31.2747429 59.9319592,31.7792952 61.2828774,32.1210938 C62.0478552,32.3001311 63.1871668,32.3896484 64.7008462,32.3896484 C65.6774136,32.3896484 66.7597595,32.2513035 67.9479165,31.9746094 C69.1360735,31.6979153 70.0312468,31.327639 70.6334634,30.8637695 C71.2356799,30.3999 71.6466459,29.8750029 71.8663735,29.2890625 C72.0861012,28.7031221 72.1959634,27.5638105 72.1959634,25.8710938 C72.1959634,23.0553245 72.0087908,21.4155297 71.6344399,20.9516602 C71.2600891,20.4877906 70.0800879,20.1826179 68.0944009,20.0361328 L67.1178384,19.9628906 L66.4586587,19.9873047 C66.361002,19.9710286 66.2307949,19.9466147 66.0680337,19.9140625 L65.7018228,19.3037109 C65.7018228,19.2223303 65.7587883,19.1165371 65.8727212,18.9863281 C66.7190796,18.8561191 68.5582539,18.7910156 71.3902993,18.7910156 C72.0250681,18.7910156 73.0585864,18.8072915 74.4908853,18.8398438 L77.0055337,18.9375 L79.2760415,18.9130859 C79.7154968,18.9130859 80.2444629,18.9293618 80.8629556,18.9619141 C80.9768884,18.9781902 81.0501299,19.006673 81.0826821,19.0473633 C81.1152344,19.0880536 81.1315103,19.1572261 81.1315103,19.2548828 C81.1315103,19.4339202 81.0908206,19.6617825 81.0094399,19.9384766 C80.3258428,20.0849617 79.7968767,20.1582031 79.4225259,20.1582031 L77.8356118,20.1337891 C77.2984998,20.1337891 76.867189,20.3209617 76.5416665,20.6953125 C76.3789053,20.8743499 76.2975259,21.4846953 76.2975259,22.5263672 L76.3219399,25.7246094 C76.3219399,27.921886 76.2324226,29.3216116 76.0533853,29.9238281 C75.9557285,30.2819028 75.75228,30.6033514 75.4430337,30.8881836 C75.1337874,31.1730157 74.4827522,31.5107402 73.4899087,31.9013672 C72.073886,32.4710315 70.7880916,32.8535146 69.6324868,33.0488281 C67.4840386,33.423179 65.408864,33.6103516 63.4069009,33.6103516 C60.1842285,33.6103516 57.5434672,33.1993856 55.4845376,32.3774414 C53.425608,31.5554972 51.6515372,30.4121167 50.162272,28.9472656 C48.6730067,27.4824146 47.6110056,26.0013096 46.9762368,24.5039062 C46.0159456,22.3066296 45.5358071,20.0686963 45.5358071,17.7900391 C45.5358071,14.9417175 46.2885665,12.1544733 47.7941079,9.42822266 C49.2996493,6.70197205 51.7288242,4.48438354 55.0817056,2.77539062 C57.4417434,1.57095752 60.6480916,0.96875 64.7008462,0.96875 C67.5003394,0.96875 69.7911693,1.21288818 71.5734048,1.70117188 C73.3556403,2.18945557 74.7675728,2.74283545 75.8092446,3.36132812 L75.8092446,3.36132812 Z M88.1643877,32.21875 C88.3922534,32.088541 88.5957019,32.0234375 88.7747393,32.0234375 L89.3362627,32.0234375 C89.4501956,32.0234375 89.6455061,32.0152996 89.9222002,31.9990234 C91.1754617,31.8850906 91.9160142,31.7711594 92.1438799,31.6572266 C92.7135442,31.3479802 93.2018206,30.8108762 93.6087236,30.0458984 C94.455082,28.3857339 95.407221,26.0338694 96.465169,22.9902344 C96.9697288,21.5416594 97.2871084,20.662762 97.4173174,20.3535156 C97.8242205,19.3769482 98.2148416,18.3515679 98.5891924,17.2773438 L100.884114,10.8564453 C101.242189,9.84732568 102.104811,7.53615088 103.472005,3.92285156 C103.813803,3.01138867 104.228838,1.79069775 104.717122,0.260742188 L105.42513,0.211914062 L106.279622,0.236328125 C106.979495,1.61979858 107.597979,3.1090415 108.135091,4.70410156 C108.428061,5.55045996 108.908199,6.81184058 109.575521,8.48828125 L113.286458,18.5224609 L115.263997,23.9667969 C116.305669,27.0592603 116.989256,28.9594691 117.314778,29.6674805 C117.640301,30.3754918 117.941405,30.8434233 118.218099,31.0712891 C118.299479,31.1363936 118.604652,31.2340488 119.133626,31.3642578 C119.6626,31.4944668 120.032876,31.5921221 120.244466,31.6572266 C120.993167,31.8688162 121.513996,32.0478508 121.806966,32.1943359 C121.87207,32.3733733 121.904622,32.5117183 121.904622,32.609375 C121.904622,32.6907556 121.880208,32.8128247 121.83138,32.9755859 C121.310544,32.9918621 120.944337,33 120.732747,33 C119.902665,33 118.437836,32.9755862 116.338216,32.9267578 L113.89681,32.8535156 L110.942708,32.9023438 C110.747395,32.9023438 110.548015,32.8901368 110.344563,32.8657227 C110.141112,32.8413085 109.966146,32.8291016 109.819661,32.8291016 L109.282552,32.8291016 C109.103514,32.8128254 108.940756,32.7639978 108.794271,32.6826172 C108.794271,32.4547515 108.83496,32.2350271 108.916341,32.0234375 C109.111654,31.9257808 109.290689,31.8688152 109.45345,31.8525391 L112.016927,31.6816406 C112.684248,31.6490884 113.1888,31.559571 113.530599,31.4130859 C113.628255,31.1201157 113.677083,30.9003914 113.677083,30.7539062 C113.677083,30.460936 113.465497,29.7041077 113.042317,28.4833984 C112.749347,27.6695923 112.493002,26.896488 112.273274,26.1640625 C112.053547,25.431637 111.186856,23.0228069 109.673177,18.9375 C109.005856,18.8235671 108.419924,18.7666016 107.915364,18.7666016 L102.690755,18.8154297 L101.152669,18.7910156 C100.599281,18.7910156 99.9889353,18.8317053 99.3216143,18.9130859 C99.1100247,19.4013696 98.9716797,19.751301 98.9065752,19.9628906 L96.7581377,26.6767578 C95.8466748,29.2321091 95.3909502,30.6399727 95.3909502,30.9003906 C95.3909502,31.0468757 95.4641917,31.2910139 95.6106768,31.6328125 C95.9524753,31.7304692 96.4082,31.8199866 96.9778643,31.9013672 L100.298177,32.1943359 C100.477214,32.340821 100.566731,32.4710281 100.566731,32.5849609 C100.566731,32.6663416 100.542318,32.7884106 100.493489,32.9511719 C99.7610637,32.967448 99.1995459,32.9755859 98.808919,32.9755859 C97.5068291,32.9755859 95.9931724,32.9348962 94.2679033,32.8535156 C93.4703733,32.8209634 92.9007175,32.8046875 92.558919,32.8046875 C92.2171204,32.8046875 91.6230508,32.8209634 90.7766924,32.8535156 C90.2233042,32.8860679 89.8245452,32.9023438 89.5804033,32.9023438 C89.1897764,32.9023438 88.6852241,32.8779299 88.0667315,32.8291016 L88.0667315,32.6826172 C88.0667315,32.5686843 88.0992832,32.4140635 88.1643877,32.21875 L88.1643877,32.21875 Z M99.8098955,17.5703125 C101.551441,17.6679692 103.537098,17.7167969 105.766927,17.7167969 C107.036464,17.7167969 108.151362,17.6761072 109.111653,17.5947266 C108.948892,16.9599578 108.761719,16.3658882 108.55013,15.8125 C107.492182,12.9804546 106.90625,11.4179702 106.792317,11.125 L104.570638,5.48535156 L104.326497,5.04589844 C104.22884,5.24121191 103.870771,6.07941968 103.252278,7.56054688 C102.210606,10.0996221 101.461916,12.0771414 101.006185,13.4931641 C100.794595,14.1279329 100.574871,14.7586232 100.347005,15.3852539 C100.119139,16.0118846 99.9767252,16.4513334 99.9197588,16.7036133 C99.8627924,16.9558932 99.777344,17.2122383 99.6634111,17.4726562 L99.8098955,17.5703125 Z" id="QGA" fill="#555555" sketch:type="MSShapeGroup"></path>
        </g>
    </g>
</svg>