<?xml version="1.0" encoding="UTF-8" standalone="no"?>
<svg width="139px" height="36px" viewBox="0 0 139 36" version="1.1" xmlns="http://www.w3.org/2000/svg" xmlns:xlink="http://www.w3.org/1999/xlink">
    <!-- Generator: Sketch 3.6.1 (26313) - http://www.bohemiancoding.com/sketch -->
    <title>svg</title>
    <desc>Created with Sketch.</desc>
    <defs></defs>
    <g id="Page-1" stroke="none" stroke-width="1" fill="none" fill-rule="evenodd">
        <g id="svg">
            <g id="Group-2">
                <g id="Group" fill="#009A44">
                    <path d="M16.0416667,33.1770833 L16.0416667,0 L10.6944444,0 L10.6944444,28.9236111 L5.83333333,28.9236111 L5.83333333,10.2083333 L2.91666667,10.2083333 C1.30583615,10.2083333 1.77635684e-15,11.507214 8.8817842e-16,13.1316581 L8.8817842e-16,29.2848654 L7.81597009e-14,31.8402778 C7.81597009e-14,33.4478306 1.30895641,34.7569444 2.92363598,34.7569444 L16.0416667,34.7569444 L16.0416667,33.1770833 Z" id="Combined-Shape"></path>
                </g>
                <g id="Group" transform="translate(26.500000, 17.500000) scale(-1, -1) translate(-26.500000, -17.500000) translate(18.000000, 0.000000)" fill="#009A44">
                    <path d="M16.0416667,33.1770833 L16.0416667,0 L10.6944444,0 L10.6944444,28.9236111 L5.83333333,28.9236111 L5.83333333,10.2083333 L2.91666667,10.2083333 C1.30583615,10.2083333 0,11.507214 0,13.1316581 L0,29.2848654 L7.10542736e-14,31.8402778 C7.10542736e-14,33.4478306 1.30895641,34.7569444 2.92363598,34.7569444 L16.0416667,34.7569444 L16.0416667,33.1770833 Z" id="Combined-Shape"></path>
                </g>
                <ellipse id="Oval-1" fill="#FFFFFF" cx="17.5" cy="17.0138889" rx="6.31944444" ry="6.31944444"></ellipse>
                <g id="ball" transform="translate(11.180556, 10.694444)" fill="#4A4A4A">
                    <g id="Capa_1">
                        <path d="M5.95580556,11.9424861 C5.49286111,11.6980139 5.28630556,11.6960278 4.90695833,11.9850972 C4.85026389,11.971375 4.79356944,11.9569306 4.73723611,11.9414028 C4.69336111,11.7474861 4.76341667,11.5517639 4.93656944,11.4022639 C5.17544444,11.1966111 5.58566667,11.1614028 5.81713889,11.3271528 C6.01719444,11.4697917 6.0645,11.6806806 5.95580556,11.9424861 L5.95580556,11.9424861 Z M7.65447222,11.1099444 C7.43130556,10.9891528 7.08608333,11.0565 6.84829167,11.2673889 C6.617,11.4725 6.54531944,11.72925 6.657625,12.0336667 C6.9745,11.6292222 7.33940278,11.4450556 7.81733333,11.6978333 C7.89677778,11.3885417 7.84477778,11.2125 7.65447222,11.1099444 L7.65447222,11.1099444 Z M3.90902778,11.4062361 C3.73425,11.269375 3.46955556,11.233625 3.24819444,11.2998889 C3.52281944,11.4665417 3.81225,11.6113472 4.11377778,11.7315972 C4.09301389,11.6088194 4.02440278,11.4966944 3.90902778,11.4062361 L3.90902778,11.4062361 Z M9.22729167,10.7782639 C8.94309722,10.7468472 8.73744444,10.9095278 8.57205556,11.11825 C8.42327778,11.3056667 8.33931944,11.5105972 8.41208333,11.7608472 C8.46516667,11.7404444 8.51752778,11.7195 8.56970833,11.6978333 C8.76579167,11.4678056 8.97794444,11.2899583 9.29102778,11.336 C9.35584722,11.2977222 9.42048611,11.2585417 9.48313889,11.2184583 C9.53622222,10.9803056 9.44377778,10.8024583 9.22729167,10.7782639 L9.22729167,10.7782639 Z M8.86690278,9.70775 C8.88098611,9.43348611 8.78547222,9.24697222 8.54840278,9.17348611 C8.26023611,9.08393056 8.02515278,9.20869444 7.83827778,9.42211111 C7.65104167,9.63661111 7.56184722,9.88090278 7.64526389,10.1331389 C7.81625,9.96648611 7.967375,9.77636111 8.15876389,9.64419444 C8.38211111,9.48909722 8.62965278,9.5615 8.86690278,9.70775 L8.86690278,9.70775 Z M9.76047222,7.67686111 C9.74079167,7.42498611 9.68120833,7.21427778 9.44847222,7.10377778 C9.24155556,7.00501389 9.05395833,7.06459722 8.88856944,7.20831944 C8.659625,7.40711111 8.58288889,7.69527778 8.67136111,8.01161111 C9.000875,7.42245833 9.31576389,7.31972222 9.76047222,7.67686111 L9.76047222,7.67686111 Z M9.45479167,9.88830556 C9.72941667,9.290125 9.97172222,9.14134722 10.414625,9.312875 C10.4175139,8.94797222 10.2302778,8.75369444 9.96540278,8.82302778 C9.57323611,8.92522222 9.29463889,9.50625 9.45479167,9.88830556 L9.45479167,9.88830556 Z M11.0644444,7.30184722 C11.0409722,7.20163889 11.0442222,7.109375 11.0005278,7.05286111 C10.9077222,6.93297222 10.7966806,6.75241667 10.6820278,6.74393056 C10.5495,6.73363889 10.3671389,6.85154167 10.27325,6.96745833 C10.1078611,7.17311111 10.1024444,7.43401389 10.1564306,7.71784722 C10.4278056,7.10143056 10.6332778,7.00501389 11.0644444,7.30184722 L11.0644444,7.30184722 Z M10.7750139,4.68054167 C10.5489583,4.71448611 10.4418889,5.009875 10.5105,5.41197222 C10.7690556,4.98333333 10.9147639,4.96581944 11.292125,5.33776389 C11.2341667,4.91183333 11.0155139,4.64515278 10.7750139,4.68054167 L10.7750139,4.68054167 Z M6.03488889,9.49325 C5.737875,9.68175 5.61852778,10.0316667 5.74365278,10.3487222 C5.99968056,9.62884722 6.26076389,9.45695833 6.90570833,9.61277778 C6.66286111,9.34230556 6.33172222,9.30529167 6.03488889,9.49325 L6.03488889,9.49325 Z M3.995875,9.61205556 C3.72106944,9.80597222 3.63386111,10.1537222 3.79238889,10.4223889 C3.84818056,9.79080556 4.24504167,9.54651389 4.9205,9.72815278 C4.67963889,9.44847222 4.29595833,9.40008333 3.995875,9.61205556 L3.995875,9.61205556 Z M7.90273611,7.57141667 C7.70520833,7.33398611 7.39808333,7.278375 7.12869444,7.42372222 C6.81615278,7.59236111 6.63993056,8.05386111 6.80911111,8.35881944 C6.91040278,7.66873611 7.25959722,7.42390278 7.90273611,7.57141667 L7.90273611,7.57141667 Z M9.99429167,5.20541667 C9.82998611,5.03081944 9.65647222,4.95986111 9.44865278,5.08173611 C9.20580556,5.22383333 9.11625,5.58151389 9.23306944,5.90055556 C9.34284722,5.30219444 9.49631944,5.15775 9.99429167,5.20541667 L9.99429167,5.20541667 Z M10.9414861,2.96075 C10.9461806,2.94106944 10.9514167,2.92138889 10.9562917,2.90152778 C10.837125,2.87805556 10.6724583,2.79355556 10.6065556,2.84248611 C10.4101111,2.98873611 10.482875,3.20540278 10.5485972,3.47280556 C10.5697222,3.02611111 10.6414028,2.9445 10.9414861,2.96075 L10.9414861,2.96075 Z M12.5944722,6.30608333 C12.5944722,9.77726389 9.77076389,12.6004306 6.300125,12.6004306 C2.829125,12.6004306 0.00577777778,9.77672222 0.00577777778,6.30608333 C0.00577777778,4.233125 1.01363889,2.39073611 2.56461111,1.24348611 C3.60713889,0.462944444 4.90081944,0 6.30030556,0 C7.657,0 8.91420833,0.435319444 9.93940278,1.17288889 C11.5452639,2.31472222 12.5944722,4.19015278 12.5944722,6.30608333 L12.5944722,6.30608333 Z M11.5997917,8.79829167 C11.5978056,8.697 11.54075,8.58379167 11.5152917,8.47780556 C11.3432222,8.89669444 11.3114444,9.374625 10.645375,9.44991667 C10.768875,9.60718056 10.8479583,9.80055556 10.9467222,9.81120833 C10.9602639,9.81265278 10.9750694,9.81229167 10.9900556,9.81138889 C11.2255,9.4965 11.43025,9.15723611 11.5997917,8.79829167 L11.5997917,8.79829167 Z M12.0305972,7.51779167 C12.0795278,7.28577778 12.1147361,7.04888889 12.1353194,6.80784722 C12.1154583,6.654375 12.0692361,6.51227778 11.9934028,6.40972222 C11.9231667,6.77931944 12.0121806,7.24063889 11.4266389,7.34951389 C11.4602222,7.42715278 11.4874861,7.52916667 11.5432778,7.61276389 C11.6557639,7.78194444 11.8099583,7.78663889 11.9460972,7.63966667 C11.9782361,7.60572222 12.0065833,7.56401389 12.0305972,7.51779167 L12.0305972,7.51779167 Z M6.30030556,12.163125 C7.62991667,12.163125 8.85715278,11.7173333 9.84136111,10.9682083 C9.79658333,11.0019722 9.75180556,11.0355556 9.70576389,11.0682361 C9.71804167,11.04675 9.73031944,11.0249028 9.74313889,11.0043194 C9.85544444,10.82575 9.97425,10.6004167 10.1475833,10.5207917 C10.6067361,10.3113472 10.6832917,9.992125 10.6056528,9.56818056 C10.5274722,9.14080556 10.5895833,8.76398611 10.9075417,8.44927778 C11.2565556,8.10351389 11.3350972,7.687875 11.2366944,7.21915278 C11.1632083,6.86923611 11.2648611,6.55615278 11.5046389,6.300125 C11.6411389,6.153875 11.8012917,6.02225 11.9711944,5.91644444 C12.0333056,5.87744444 12.0872917,5.835375 12.1336944,5.79059722 C12.09975,5.40565278 12.0289722,5.03136111 11.9240694,4.67133333 C11.7994861,4.59694444 11.7108333,4.66176389 11.5999722,4.850625 C11.587875,4.84466667 11.5653056,4.83834722 11.5653056,4.83256944 C11.5678333,4.62384722 11.4753889,4.32358333 11.7287083,4.26526389 C11.7494722,4.26056944 11.7684306,4.25876389 11.7864861,4.25786111 C10.9544861,2.03558333 8.80930556,0.449402778 6.30030556,0.449402778 C3.07052778,0.449402778 0.443444444,3.07684722 0.443444444,6.30644444 C0.443444444,7.72344444 0.949361111,9.02434722 1.78966667,10.0381667 C1.79418056,9.83359722 1.88572222,9.67380556 2.05418056,9.56565278 C2.33909722,9.38256944 2.64784722,9.43131944 2.98602778,9.75884722 C2.68756944,9.62794444 2.44815278,9.58009722 2.20927778,9.71298611 C2.03143056,9.81211111 1.93140278,9.95565278 1.88409722,10.1490278 C2.14463889,10.4482083 2.43533333,10.7206667 2.75076389,10.9615278 C2.91073611,11.0823194 3.07648611,11.19625 3.248375,11.3000694 C3.24711111,11.3006111 3.24638889,11.3009722 3.24494444,11.3013333 C4.13508333,11.8476944 5.18158333,12.163125 6.30030556,12.163125 L6.30030556,12.163125 Z" id="Shape"></path>
                    </g>
                </g>
            </g>
            <path d="M55.7,10.54 C55.7,12.0200074 55.3700033,13.1866624 54.71,14.04 C54.0499967,14.8933376 53.0133404,15.32 51.6,15.32 C50.6133284,15.32 49.7733368,15.0400028 49.08,14.48 C48.3866632,13.9199972 47.9333344,13.1800046 47.72,12.26 L50.32,11.1 C50.4000004,11.4200016 50.5299991,11.6999988 50.71,11.94 C50.8900009,12.1800012 51.1333318,12.3 51.44,12.3 C51.8800022,12.3 52.1699993,12.1200018 52.31,11.76 C52.4500007,11.3999982 52.52,10.9000032 52.52,10.26 L52.52,0.84 L55.7,0.84 L55.7,10.54 Z M58.17,15 L58.17,0.84 L65.01,0.84 L65.01,3.66 L61.23,3.66 L61.23,6.44 L64.71,6.44 L64.71,9.08 L61.23,9.08 L61.23,12.14 L65.25,12.14 L65.25,15 L58.17,15 Z M73.06,15 L71.16,9.36 L70.22,9.36 L70.22,15 L67.14,15 L67.14,0.84 L71.68,0.84 C73.0533402,0.84 74.1199962,1.1966631 74.88,1.91 C75.6400038,2.6233369 76.02,3.6866596 76.02,5.1 C76.02,5.6200026 75.9600006,6.0866646 75.84,6.5 C75.7199994,6.9133354 75.5633343,7.2666652 75.37,7.56 C75.1766657,7.8533348 74.9600012,8.0933324 74.72,8.28 C74.4799988,8.4666676 74.2466678,8.5999996 74.02,8.68 L76.44,15 L73.06,15 Z M72.86,5.28 C72.86,4.9199982 72.8100005,4.6266678 72.71,4.4 C72.6099995,4.1733322 72.4800008,3.993334 72.32,3.86 C72.1599992,3.726666 71.9833343,3.6366669 71.79,3.59 C71.5966657,3.5433331 71.4066676,3.52 71.22,3.52 L70.22,3.52 L70.22,7.1 L71.16,7.1 C71.6133356,7.1 72.0099983,6.9566681 72.35,6.67 C72.6900017,6.3833319 72.86,5.9200032 72.86,5.28 L72.86,5.28 Z M83.89,15 L81.99,9.36 L81.05,9.36 L81.05,15 L77.97,15 L77.97,0.84 L82.51,0.84 C83.8833402,0.84 84.9499962,1.1966631 85.71,1.91 C86.4700038,2.6233369 86.85,3.6866596 86.85,5.1 C86.85,5.6200026 86.7900006,6.0866646 86.67,6.5 C86.5499994,6.9133354 86.3933343,7.2666652 86.2,7.56 C86.0066657,7.8533348 85.7900012,8.0933324 85.55,8.28 C85.3099988,8.4666676 85.0766678,8.5999996 84.85,8.68 L87.27,15 L83.89,15 Z M83.69,5.28 C83.69,4.9199982 83.6400005,4.6266678 83.54,4.4 C83.4399995,4.1733322 83.3100008,3.993334 83.15,3.86 C82.9899992,3.726666 82.8133343,3.6366669 82.62,3.59 C82.4266657,3.5433331 82.2366676,3.52 82.05,3.52 L81.05,3.52 L81.05,7.1 L81.99,7.1 C82.4433356,7.1 82.8399983,6.9566681 83.18,6.67 C83.5200017,6.3833319 83.69,5.9200032 83.69,5.28 L83.69,5.28 Z M94.02,9.9 L94.02,15 L90.88,15 L90.88,9.9 L87.3,0.84 L90.76,0.84 L92.46,6.7 L92.5,6.7 L94.22,0.84 L97.62,0.84 L94.02,9.9 Z M110.92,5.28 C110.92,6.0666706 110.800001,6.7466638 110.56,7.32 C110.319999,7.8933362 110.000002,8.3666648 109.6,8.74 C109.199998,9.1133352 108.746669,9.3899991 108.24,9.57 C107.733331,9.7500009 107.220003,9.84 106.7,9.84 L105.32,9.84 L105.32,15 L102.18,15 L102.18,0.84 L106.58,0.84 C107.086669,0.84 107.596664,0.9133326 108.11,1.06 C108.623336,1.2066674 109.089998,1.4499983 109.51,1.79 C109.930002,2.1300017 110.269999,2.5866638 110.53,3.16 C110.790001,3.7333362 110.92,4.4399958 110.92,5.28 L110.92,5.28 Z M107.92,5.34 C107.92,4.6999968 107.766668,4.2400014 107.46,3.96 C107.153332,3.6799986 106.780002,3.54 106.34,3.54 L105.32,3.54 L105.32,7.24 L106.34,7.24 C106.780002,7.24 107.153332,7.0766683 107.46,6.75 C107.766668,6.4233317 107.92,5.9533364 107.92,5.34 L107.92,5.34 Z M118.07,15 L117.49,12.42 L114.31,12.42 L113.73,15 L110.53,15 L113.97,0.84 L117.99,0.84 L121.41,15 L118.07,15 Z M115.95,3.92 L115.87,3.92 L114.67,9.94 L117.09,9.94 L115.95,3.92 Z M126.76,3.56 L126.76,15 L123.62,15 L123.62,3.56 L121.02,3.56 L121.02,0.84 L129.36,0.84 L129.36,3.56 L126.76,3.56 Z M130.61,15 L130.61,0.84 L137.45,0.84 L137.45,3.66 L133.67,3.66 L133.67,6.44 L137.15,6.44 L137.15,9.08 L133.67,9.08 L133.67,12.14 L137.69,12.14 L137.69,15 L130.61,15 Z" id="JERRY-PATE" fill="#009A44"></path>
            <path d="M63.148,27.168 C63.148,28.5320068 62.8950025,29.708995 62.389,30.699 C61.8829975,31.6890049 61.2156708,32.5029968 60.387,33.141 C59.5583292,33.7790032 58.6233385,34.2483318 57.582,34.549 C56.5406615,34.8496682 55.484672,35 54.414,35 L48.606,35 L48.606,19.424 L54.238,19.424 C55.3380055,19.424 56.423328,19.552332 57.494,19.809 C58.564672,20.0656679 59.5179958,20.490997 60.354,21.085 C61.1900042,21.679003 61.8646641,22.4746617 62.378,23.472 C62.8913359,24.4693383 63.148,25.701326 63.148,27.168 L63.148,27.168 Z M59.232,27.168 C59.232,26.2879956 59.0890014,25.5583362 58.803,24.979 C58.5169986,24.3996638 58.135669,23.9376684 57.659,23.593 C57.1823309,23.2483316 56.6396697,23.0026674 56.031,22.856 C55.4223303,22.7093326 54.7953366,22.636 54.15,22.636 L52.28,22.636 L52.28,31.744 L54.062,31.744 C54.73667,31.744 55.3856635,31.6670008 56.009,31.513 C56.6323364,31.3589992 57.1823309,31.1060018 57.659,30.754 C58.135669,30.4019982 58.5169986,29.9326696 58.803,29.346 C59.0890014,28.7593304 59.232,28.0333377 59.232,27.168 L59.232,27.168 Z M67.234,35 L67.234,19.424 L77.706,19.424 L77.706,22.614 L70.864,22.614 L70.864,25.54 L77.332,25.54 L77.332,28.554 L70.864,28.554 L70.864,31.788 L78.102,31.788 L78.102,35 L67.234,35 Z M90.416,23.472 C90.0933318,23.0613313 89.6716693,22.7350012 89.151,22.493 C88.6303308,22.2509988 88.1280025,22.13 87.644,22.13 C87.3946655,22.13 87.141668,22.1519998 86.885,22.196 C86.6283321,22.2400002 86.3973344,22.3243327 86.192,22.449 C85.9866657,22.5736673 85.8143341,22.734999 85.675,22.933 C85.535666,23.131001 85.466,23.3839985 85.466,23.692 C85.466,23.9560013 85.5209995,24.1759991 85.631,24.352 C85.7410006,24.5280009 85.9023323,24.6819993 86.115,24.814 C86.3276678,24.9460007 86.5806652,25.0669994 86.874,25.177 C87.1673348,25.2870005 87.4973315,25.4006661 87.864,25.518 C88.3920027,25.6940009 88.9419972,25.8883323 89.514,26.101 C90.0860029,26.3136677 90.6066644,26.5959982 91.076,26.948 C91.5453357,27.3000018 91.9339985,27.7363307 92.242,28.257 C92.5500016,28.7776693 92.704,29.4266628 92.704,30.204 C92.704,31.0986711 92.5390017,31.8723301 92.209,32.525 C91.8789984,33.1776699 91.4353362,33.7166645 90.878,34.142 C90.3206639,34.5673355 89.6826703,34.8826656 88.964,35.088 C88.2453298,35.2933344 87.5046705,35.396 86.742,35.396 C85.6273278,35.396 84.5493386,35.2016686 83.508,34.813 C82.4666615,34.4243314 81.6013368,33.8706703 80.912,33.152 L83.376,30.644 C83.7573353,31.1133357 84.2596636,31.5056651 84.883,31.821 C85.5063365,32.1363349 86.125997,32.294 86.742,32.294 C87.0206681,32.294 87.2919987,32.264667 87.556,32.206 C87.8200014,32.147333 88.0509991,32.0520007 88.249,31.92 C88.447001,31.7879993 88.6046661,31.6120011 88.722,31.392 C88.839334,31.1719989 88.898,30.9080015 88.898,30.6 C88.898,30.3066652 88.8246674,30.0573344 88.678,29.852 C88.5313326,29.6466656 88.3223347,29.4596675 88.051,29.291 C87.7796654,29.1223325 87.4423354,28.968334 87.039,28.829 C86.6356647,28.689666 86.1773359,28.5393341 85.664,28.378 C85.1653309,28.2166659 84.6776691,28.0260011 84.201,27.806 C83.724331,27.5859989 83.2990019,27.3036684 82.925,26.959 C82.5509982,26.6143316 82.2503345,26.1963358 82.023,25.705 C81.7956656,25.2136642 81.682,24.6160035 81.682,23.912 C81.682,23.0466623 81.8579983,22.3060031 82.21,21.69 C82.5620018,21.0739969 83.0239972,20.568002 83.596,20.172 C84.1680029,19.775998 84.8133298,19.4863342 85.532,19.303 C86.2506703,19.1196657 86.976663,19.028 87.71,19.028 C88.5900044,19.028 89.4883288,19.1893317 90.405,19.512 C91.3216713,19.8346683 92.1246633,20.3113302 92.814,20.942 L90.416,23.472 Z M96.7900001,35 L96.7900001,19.424 L100.574,19.424 L100.574,35 L96.7900001,35 Z M119.224,34.054 C118.46133,34.450002 117.570339,34.7726654 116.551,35.022 C115.531662,35.2713346 114.420673,35.396 113.218,35.396 C111.971327,35.396 110.823672,35.198002 109.775,34.802 C108.726328,34.405998 107.824337,33.8486703 107.069,33.13 C106.313663,32.4113297 105.723336,31.5496717 105.298,30.545 C104.872665,29.5403283 104.66,28.4220062 104.66,27.19 C104.66,25.9433271 104.876331,24.8140051 105.309,23.802 C105.741669,22.7899949 106.33933,21.9283369 107.102,21.217 C107.864671,20.5056631 108.759328,19.9593352 109.786,19.578 C110.812672,19.1966648 111.919994,19.006 113.108,19.006 C114.340006,19.006 115.483995,19.1929981 116.54,19.567 C117.596005,19.9410019 118.453997,20.4433302 119.114,21.074 L116.738,23.78 C116.371332,23.3546645 115.887336,23.0063347 115.286,22.735 C114.684664,22.4636653 114.002671,22.328 113.24,22.328 C112.579997,22.328 111.971336,22.4489988 111.414,22.691 C110.856664,22.9330012 110.372669,23.2703312 109.962,23.703 C109.551331,24.1356688 109.232335,24.648997 109.005,25.243 C108.777666,25.837003 108.664,26.4859965 108.664,27.19 C108.664,27.9086703 108.766666,28.5686637 108.972,29.17 C109.177334,29.7713363 109.481665,30.2883312 109.885,30.721 C110.288335,31.1536688 110.786997,31.4909988 111.381,31.733 C111.975003,31.9750012 112.65333,32.096 113.416,32.096 C113.856002,32.096 114.273998,32.0630003 114.67,31.997 C115.066002,31.9309997 115.432665,31.8246674 115.77,31.678 L115.77,28.84 L112.8,28.84 L112.8,25.804 L119.224,25.804 L119.224,34.054 Z M133.804,35 L127.534,24.814 L127.468,24.814 L127.556,35 L123.904,35 L123.904,19.424 L128.194,19.424 L134.442,29.588 L134.508,29.588 L134.42,19.424 L138.072,19.424 L138.072,35 L133.804,35 Z" id="DESIGN" fill="#4A4A4A"></path>
        </g>
    </g>
</svg>