<?xml version="1.0" encoding="UTF-8" standalone="no"?>
<svg width="35px" height="35px" viewBox="0 0 35 35" version="1.1" xmlns="http://www.w3.org/2000/svg" xmlns:xlink="http://www.w3.org/1999/xlink">
    <!-- Generator: Sketch 3.6.1 (26313) - http://www.bohemiancoding.com/sketch -->
    <title>gray</title>
    <desc>Created with Sketch.</desc>
    <defs></defs>
    <g id="Page-1" stroke="none" stroke-width="1" fill="none" fill-rule="evenodd">
        <g id="gray">
            <g id="Group-2">
                <g id="Group" fill="#555555">
                    <path d="M16.0416667,33.1770833 L16.0416667,0 L10.6944444,0 L10.6944444,28.9236111 L5.83333333,28.9236111 L5.83333333,10.2083333 L2.91666667,10.2083333 C1.30583615,10.2083333 1.77635684e-15,11.507214 8.8817842e-16,13.1316581 L8.8817842e-16,29.2848654 L7.81597009e-14,31.8402778 C7.81597009e-14,33.4478306 1.30895641,34.7569444 2.92363598,34.7569444 L16.0416667,34.7569444 L16.0416667,33.1770833 Z" id="Combined-Shape"></path>
                </g>
                <g id="Group" transform="translate(26.500000, 17.500000) scale(-1, -1) translate(-26.500000, -17.500000) translate(18.000000, 0.000000)" fill="#555555">
                    <path d="M16.0416667,33.1770833 L16.0416667,0 L10.6944444,0 L10.6944444,28.9236111 L5.83333333,28.9236111 L5.83333333,10.2083333 L2.91666667,10.2083333 C1.30583615,10.2083333 0,11.507214 0,13.1316581 L0,29.2848654 L7.10542736e-14,31.8402778 C7.10542736e-14,33.4478306 1.30895641,34.7569444 2.92363598,34.7569444 L16.0416667,34.7569444 L16.0416667,33.1770833 Z" id="Combined-Shape"></path>
                </g>
                <ellipse id="Oval-1" fill="#555555" cx="17.5" cy="17.0138889" rx="6.31944444" ry="6.31944444"></ellipse>
                <g id="ball" opacity="0.246501866" transform="translate(11.180556, 10.694444)" fill="#FFFFFF">
                    <g id="Capa_1">
                        <path d="M5.95580556,11.9424861 C5.49286111,11.6980139 5.28630556,11.6960278 4.90695833,11.9850972 C4.85026389,11.971375 4.79356944,11.9569306 4.73723611,11.9414028 C4.69336111,11.7474861 4.76341667,11.5517639 4.93656944,11.4022639 C5.17544444,11.1966111 5.58566667,11.1614028 5.81713889,11.3271528 C6.01719444,11.4697917 6.0645,11.6806806 5.95580556,11.9424861 L5.95580556,11.9424861 Z M7.65447222,11.1099444 C7.43130556,10.9891528 7.08608333,11.0565 6.84829167,11.2673889 C6.617,11.4725 6.54531944,11.72925 6.657625,12.0336667 C6.9745,11.6292222 7.33940278,11.4450556 7.81733333,11.6978333 C7.89677778,11.3885417 7.84477778,11.2125 7.65447222,11.1099444 L7.65447222,11.1099444 Z M3.90902778,11.4062361 C3.73425,11.269375 3.46955556,11.233625 3.24819444,11.2998889 C3.52281944,11.4665417 3.81225,11.6113472 4.11377778,11.7315972 C4.09301389,11.6088194 4.02440278,11.4966944 3.90902778,11.4062361 L3.90902778,11.4062361 Z M9.22729167,10.7782639 C8.94309722,10.7468472 8.73744444,10.9095278 8.57205556,11.11825 C8.42327778,11.3056667 8.33931944,11.5105972 8.41208333,11.7608472 C8.46516667,11.7404444 8.51752778,11.7195 8.56970833,11.6978333 C8.76579167,11.4678056 8.97794444,11.2899583 9.29102778,11.336 C9.35584722,11.2977222 9.42048611,11.2585417 9.48313889,11.2184583 C9.53622222,10.9803056 9.44377778,10.8024583 9.22729167,10.7782639 L9.22729167,10.7782639 Z M8.86690278,9.70775 C8.88098611,9.43348611 8.78547222,9.24697222 8.54840278,9.17348611 C8.26023611,9.08393056 8.02515278,9.20869444 7.83827778,9.42211111 C7.65104167,9.63661111 7.56184722,9.88090278 7.64526389,10.1331389 C7.81625,9.96648611 7.967375,9.77636111 8.15876389,9.64419444 C8.38211111,9.48909722 8.62965278,9.5615 8.86690278,9.70775 L8.86690278,9.70775 Z M9.76047222,7.67686111 C9.74079167,7.42498611 9.68120833,7.21427778 9.44847222,7.10377778 C9.24155556,7.00501389 9.05395833,7.06459722 8.88856944,7.20831944 C8.659625,7.40711111 8.58288889,7.69527778 8.67136111,8.01161111 C9.000875,7.42245833 9.31576389,7.31972222 9.76047222,7.67686111 L9.76047222,7.67686111 Z M9.45479167,9.88830556 C9.72941667,9.290125 9.97172222,9.14134722 10.414625,9.312875 C10.4175139,8.94797222 10.2302778,8.75369444 9.96540278,8.82302778 C9.57323611,8.92522222 9.29463889,9.50625 9.45479167,9.88830556 L9.45479167,9.88830556 Z M11.0644444,7.30184722 C11.0409722,7.20163889 11.0442222,7.109375 11.0005278,7.05286111 C10.9077222,6.93297222 10.7966806,6.75241667 10.6820278,6.74393056 C10.5495,6.73363889 10.3671389,6.85154167 10.27325,6.96745833 C10.1078611,7.17311111 10.1024444,7.43401389 10.1564306,7.71784722 C10.4278056,7.10143056 10.6332778,7.00501389 11.0644444,7.30184722 L11.0644444,7.30184722 Z M10.7750139,4.68054167 C10.5489583,4.71448611 10.4418889,5.009875 10.5105,5.41197222 C10.7690556,4.98333333 10.9147639,4.96581944 11.292125,5.33776389 C11.2341667,4.91183333 11.0155139,4.64515278 10.7750139,4.68054167 L10.7750139,4.68054167 Z M6.03488889,9.49325 C5.737875,9.68175 5.61852778,10.0316667 5.74365278,10.3487222 C5.99968056,9.62884722 6.26076389,9.45695833 6.90570833,9.61277778 C6.66286111,9.34230556 6.33172222,9.30529167 6.03488889,9.49325 L6.03488889,9.49325 Z M3.995875,9.61205556 C3.72106944,9.80597222 3.63386111,10.1537222 3.79238889,10.4223889 C3.84818056,9.79080556 4.24504167,9.54651389 4.9205,9.72815278 C4.67963889,9.44847222 4.29595833,9.40008333 3.995875,9.61205556 L3.995875,9.61205556 Z M7.90273611,7.57141667 C7.70520833,7.33398611 7.39808333,7.278375 7.12869444,7.42372222 C6.81615278,7.59236111 6.63993056,8.05386111 6.80911111,8.35881944 C6.91040278,7.66873611 7.25959722,7.42390278 7.90273611,7.57141667 L7.90273611,7.57141667 Z M9.99429167,5.20541667 C9.82998611,5.03081944 9.65647222,4.95986111 9.44865278,5.08173611 C9.20580556,5.22383333 9.11625,5.58151389 9.23306944,5.90055556 C9.34284722,5.30219444 9.49631944,5.15775 9.99429167,5.20541667 L9.99429167,5.20541667 Z M10.9414861,2.96075 C10.9461806,2.94106944 10.9514167,2.92138889 10.9562917,2.90152778 C10.837125,2.87805556 10.6724583,2.79355556 10.6065556,2.84248611 C10.4101111,2.98873611 10.482875,3.20540278 10.5485972,3.47280556 C10.5697222,3.02611111 10.6414028,2.9445 10.9414861,2.96075 L10.9414861,2.96075 Z M12.5944722,6.30608333 C12.5944722,9.77726389 9.77076389,12.6004306 6.300125,12.6004306 C2.829125,12.6004306 0.00577777778,9.77672222 0.00577777778,6.30608333 C0.00577777778,4.233125 1.01363889,2.39073611 2.56461111,1.24348611 C3.60713889,0.462944444 4.90081944,0 6.30030556,0 C7.657,0 8.91420833,0.435319444 9.93940278,1.17288889 C11.5452639,2.31472222 12.5944722,4.19015278 12.5944722,6.30608333 L12.5944722,6.30608333 Z M11.5997917,8.79829167 C11.5978056,8.697 11.54075,8.58379167 11.5152917,8.47780556 C11.3432222,8.89669444 11.3114444,9.374625 10.645375,9.44991667 C10.768875,9.60718056 10.8479583,9.80055556 10.9467222,9.81120833 C10.9602639,9.81265278 10.9750694,9.81229167 10.9900556,9.81138889 C11.2255,9.4965 11.43025,9.15723611 11.5997917,8.79829167 L11.5997917,8.79829167 Z M12.0305972,7.51779167 C12.0795278,7.28577778 12.1147361,7.04888889 12.1353194,6.80784722 C12.1154583,6.654375 12.0692361,6.51227778 11.9934028,6.40972222 C11.9231667,6.77931944 12.0121806,7.24063889 11.4266389,7.34951389 C11.4602222,7.42715278 11.4874861,7.52916667 11.5432778,7.61276389 C11.6557639,7.78194444 11.8099583,7.78663889 11.9460972,7.63966667 C11.9782361,7.60572222 12.0065833,7.56401389 12.0305972,7.51779167 L12.0305972,7.51779167 Z M6.30030556,12.163125 C7.62991667,12.163125 8.85715278,11.7173333 9.84136111,10.9682083 C9.79658333,11.0019722 9.75180556,11.0355556 9.70576389,11.0682361 C9.71804167,11.04675 9.73031944,11.0249028 9.74313889,11.0043194 C9.85544444,10.82575 9.97425,10.6004167 10.1475833,10.5207917 C10.6067361,10.3113472 10.6832917,9.992125 10.6056528,9.56818056 C10.5274722,9.14080556 10.5895833,8.76398611 10.9075417,8.44927778 C11.2565556,8.10351389 11.3350972,7.687875 11.2366944,7.21915278 C11.1632083,6.86923611 11.2648611,6.55615278 11.5046389,6.300125 C11.6411389,6.153875 11.8012917,6.02225 11.9711944,5.91644444 C12.0333056,5.87744444 12.0872917,5.835375 12.1336944,5.79059722 C12.09975,5.40565278 12.0289722,5.03136111 11.9240694,4.67133333 C11.7994861,4.59694444 11.7108333,4.66176389 11.5999722,4.850625 C11.587875,4.84466667 11.5653056,4.83834722 11.5653056,4.83256944 C11.5678333,4.62384722 11.4753889,4.32358333 11.7287083,4.26526389 C11.7494722,4.26056944 11.7684306,4.25876389 11.7864861,4.25786111 C10.9544861,2.03558333 8.80930556,0.449402778 6.30030556,0.449402778 C3.07052778,0.449402778 0.443444444,3.07684722 0.443444444,6.30644444 C0.443444444,7.72344444 0.949361111,9.02434722 1.78966667,10.0381667 C1.79418056,9.83359722 1.88572222,9.67380556 2.05418056,9.56565278 C2.33909722,9.38256944 2.64784722,9.43131944 2.98602778,9.75884722 C2.68756944,9.62794444 2.44815278,9.58009722 2.20927778,9.71298611 C2.03143056,9.81211111 1.93140278,9.95565278 1.88409722,10.1490278 C2.14463889,10.4482083 2.43533333,10.7206667 2.75076389,10.9615278 C2.91073611,11.0823194 3.07648611,11.19625 3.248375,11.3000694 C3.24711111,11.3006111 3.24638889,11.3009722 3.24494444,11.3013333 C4.13508333,11.8476944 5.18158333,12.163125 6.30030556,12.163125 L6.30030556,12.163125 Z" id="Shape"></path>
                    </g>
                </g>
            </g>
        </g>
    </g>
</svg>