<?xml version="1.0" encoding="UTF-8" standalone="no"?>
<svg width="217px" height="74px" viewBox="0 0 217 74" version="1.1" xmlns="http://www.w3.org/2000/svg" xmlns:xlink="http://www.w3.org/1999/xlink">
    <!-- Generator: Sketch 3.7 (28169) - http://www.bohemiancoding.com/sketch -->
    <title>Jerry_Pate_Design_logo</title>
    <desc>Created with Sketch.</desc>
    <defs></defs>
    <g id="Page-1" stroke="none" stroke-width="1" fill="none" fill-rule="evenodd" opacity="0.815298507">
        <g id="Jerry_Pate_Design_logo">
            <path d="M94.1970642,18.8858571 C94.1970642,21.5174821 93.1751927,23.6720714 91.1314495,25.3489643 C89.9398165,26.3241786 88.3016514,27.1725357 86.2195963,27.8940357 L83.9776881,23.4771607 C86.0967339,22.5409286 87.4594495,21.3232321 88.0658349,19.8220893 C88.4628257,18.846875 88.6623119,17.12175 88.6623119,14.6453929 L88.6623119,5.14101786 L84.1765138,5.14101786 L85.5960367,0.0502142857 L94.1970642,0.0502142857 L94.1970642,18.8858571" id="Fill-103" fill="#FFFFFF"></path>
            <path d="M105.864367,10.9328393 C105.864367,10.2305 105.26855,9.87966071 104.075596,9.87966071 C103.526018,9.87966071 103.044477,10.0990179 102.62767,10.5383929 C102.211523,10.9771071 102.00345,11.567125 102.00345,12.3077857 C102.00345,12.8541964 102.116404,13.4296786 102.344294,14.0342321 C103.100624,13.7613571 103.876771,13.283 104.672073,12.6004821 C105.466716,11.9179643 105.864367,11.3623036 105.864367,10.9328393 L105.864367,10.9328393 Z M111.200294,9.86116071 C111.200294,11.7375893 110.405651,13.468 108.816367,15.0517321 C107.756183,16.0877321 106.705908,16.821125 105.665541,17.2505893 C105.853798,17.4461607 106.12,17.5783036 106.460183,17.6470179 C106.801028,17.7157321 107.217174,17.7494286 107.708624,17.7494286 L110.405651,17.7494286 L108.930642,22.1378929 L105.040661,22.1378929 C102.920954,22.1378929 101.029138,21.0536607 99.3632294,18.8845357 C97.6979817,16.7167321 96.8656881,14.3322143 96.8656881,11.733625 C96.8656881,9.44821429 97.4423486,7.81691071 98.5969908,6.83971429 C99.7509725,5.86317857 101.634202,5.37425 104.245358,5.37425 C106.024881,5.37425 107.406092,5.56057143 108.390972,5.93189286 C110.264294,6.63555357 111.200294,7.94508929 111.200294,9.86116071 L111.200294,9.86116071 Z" id="Fill-104" fill="#FFFFFF"></path>
            <path d="M121.278312,10.0554107 C120.634275,10.0554107 120.057615,10.1776429 119.546349,10.4214464 C119.035743,10.6665714 118.533725,11.1013214 118.042275,11.7270179 L118.042275,22.1378929 L112.903853,22.1378929 L112.903853,5.57973214 L117.787303,5.57973214 L117.787303,6.42742857 C118.278752,6.01778571 118.832294,5.70658929 119.447266,5.49119643 C120.062899,5.277125 120.671927,5.17008929 121.278312,5.17008929 L121.278312,10.0554107" id="Fill-105" fill="#FFFFFF"></path>
            <path d="M131.298862,10.0554107 C130.654826,10.0554107 130.078826,10.1776429 129.56756,10.4214464 C129.056954,10.6665714 128.554275,11.1013214 128.062165,11.7270179 L128.062165,22.1378929 L122.924404,22.1378929 L122.924404,5.57973214 L127.807193,5.57973214 L127.807193,6.42742857 C128.299303,6.01778571 128.852183,5.70658929 129.468477,5.49119643 C130.082128,5.277125 130.693798,5.17008929 131.298862,5.17008929 L131.298862,10.0554107" id="Fill-106" fill="#FFFFFF"></path>
            <polyline id="Fill-107" fill="#FFFFFF" points="148.502239 5.57973214 141.121248 27.5207321 135.585174 27.5207321 138.027229 20.5871964 132.320734 5.57973214 138.42422 5.57973214 140.723596 13.4197679 142.965505 5.57973214 148.502239 5.57973214"></polyline>
            <path d="M174.163963,6.202125 C174.163963,8.66328571 173.009321,11.0061786 170.701358,13.2327857 C168.80822,15.06825 166.47978,16.5423036 163.717358,17.6556071 L163.717358,22.1378929 L158.181945,22.1378929 L158.181945,5.55 L163.717358,5.55 L163.717358,11.6933214 C164.796037,11.1865536 165.798092,10.4842143 166.726165,9.587625 C167.805505,8.55360714 168.344514,7.64710714 168.344514,6.86680357 C168.344514,6.32039286 168.117284,5.91075 167.662826,5.637875 C167.132404,5.30619643 166.291523,5.14101786 165.136881,5.14101786 L156.960587,5.14101786 L158.37945,0.0502142857 L165.761101,0.0502142857 C168.31545,0.0502142857 170.254826,0.430785714 171.581211,1.19258929 C173.302606,2.18894643 174.163963,3.85857143 174.163963,6.202125" id="Fill-108" fill="#FFFFFF"></path>
            <path d="M184.440147,17.95425 L184.440147,10.0256786 L182.594569,10.0256786 C181.894385,10.0256786 181.345468,10.3441429 180.947817,10.9804107 C180.550826,11.6166786 180.352,12.307125 180.352,13.0504286 C180.352,14.1670357 180.782679,15.2625 181.644037,16.3394643 C182.504734,17.4164286 183.437431,17.95425 184.440147,17.95425 L184.440147,17.95425 Z M189.577908,22.1378929 L184.241321,22.1378929 C181.383119,22.1378929 179.084404,21.0047679 177.342532,18.7385179 C175.92367,16.8825714 175.214239,14.8991071 175.214239,12.7887857 C175.214239,10.0930714 175.905174,8.14858929 177.286385,6.95666071 C178.345908,6.03892857 179.774679,5.57973214 181.572697,5.57973214 L189.577908,5.57973214 L189.577908,22.1378929 L189.577908,22.1378929 Z" id="Fill-109" fill="#FFFFFF"></path>
            <path d="M201.160661,17.5155357 L199.938642,22.1378929 L196.646459,22.1378929 C195.529468,22.1378929 194.669431,21.7857321 194.063046,21.0820714 C193.343046,20.2416429 192.983706,18.7748571 192.983706,16.6830357 L192.983706,10.0256786 L191.76367,10.0256786 L191.76367,5.57973214 L192.757138,5.57973214 L192.757138,2.64946429 L198.122128,0.920375 L198.122128,5.57973214 L200.762349,5.57973214 L200.762349,10.0256786 L198.122128,10.0256786 L198.122128,15.8188214 C198.122128,16.4623571 198.250936,16.9063571 198.505908,17.1495 C198.760881,17.3939643 199.239119,17.5155357 199.938642,17.5155357 L201.160661,17.5155357" id="Fill-110" fill="#FFFFFF"></path>
            <path d="M211.635009,10.9328393 C211.635009,10.2305 211.039193,9.87966071 209.845578,9.87966071 C209.297321,9.87966071 208.813798,10.0990179 208.398312,10.5383929 C207.982165,10.9771071 207.774752,11.567125 207.774752,12.3077857 C207.774752,12.8541964 207.887706,13.4296786 208.114936,14.0342321 C208.871266,13.7613571 209.647413,13.283 210.442055,12.6004821 C211.237358,11.9179643 211.635009,11.3623036 211.635009,10.9328393 L211.635009,10.9328393 Z M216.971596,9.86116071 C216.971596,11.7375893 216.176294,13.468 214.587009,15.0517321 C213.526826,16.0877321 212.47655,16.821125 211.435523,17.2505893 C211.625101,17.4461607 211.889982,17.5783036 212.230826,17.6470179 C212.57167,17.7157321 212.987156,17.7494286 213.479927,17.7494286 L216.176294,17.7494286 L214.701284,22.1378929 L210.811963,22.1378929 C208.692257,22.1378929 206.799119,21.0536607 205.134532,18.8845357 C203.467963,16.7167321 202.635009,14.3322143 202.635009,11.733625 C202.635009,9.44821429 203.212991,7.81691071 204.367633,6.83971429 C205.521615,5.86317857 207.404844,5.37425 210.017321,5.37425 C211.796183,5.37425 213.177394,5.56057143 214.161615,5.93189286 C216.034936,6.63555357 216.971596,7.94508929 216.971596,9.86116071 L216.971596,9.86116071 Z" id="Fill-111" fill="#FFFFFF"></path>
            <path d="M112.376073,45.4234464 C112.376073,50.2268393 110.62033,54.6945893 107.108844,58.8273571 C103.218862,63.3981786 98.4728073,65.6829286 92.872,65.6829286 L84.3832661,65.6829286 L84.3832661,40.9920357 L93.2207706,40.9920357 L93.2207706,58.06225 C95.7744587,58.06225 98.0969541,56.9350714 100.186275,54.6793929 C102.275596,52.4250357 103.321248,49.899125 103.321248,47.1049643 C103.321248,45.126125 102.827156,43.5113393 101.840954,42.2599464 C100.853431,41.0085536 99.5336514,40.3828571 97.8789725,40.3828571 L82.8157798,40.3828571 L84.6877798,32.8057857 L98.8367706,32.8057857 C103.073541,32.8057857 106.353174,33.8094107 108.67567,35.8179821 C111.142165,37.9719107 112.376073,41.1737321 112.376073,45.4234464" id="Fill-112" fill="#FFFFFF"></path>
            <path d="M127.743119,49.0051786 C127.743119,47.9592679 126.830239,47.4373036 125.001174,47.4373036 C124.158312,47.4373036 123.418495,47.7630357 122.781064,48.4171429 C122.142312,49.0705893 121.822606,49.9480179 121.822606,51.0514107 C121.822606,51.86475 121.996991,52.7216964 122.34444,53.6209286 C123.505688,53.2139286 124.696,52.5036607 125.915376,51.4861607 C127.134092,50.4713036 127.743119,49.6440893 127.743119,49.0051786 L127.743119,49.0051786 Z M135.928661,47.4088929 C135.928661,50.2030536 134.709284,52.7778571 132.271853,55.1352857 C130.645578,56.6780536 129.035156,57.7688929 127.439266,58.409125 C127.729248,58.6998393 128.135486,58.8960714 128.657982,58.9984821 C129.181138,59.1002321 129.818569,59.1504464 130.573578,59.1504464 L134.709284,59.1504464 L132.444917,65.6829286 L126.480807,65.6829286 C123.229578,65.6829286 120.327119,64.0694643 117.773431,60.8412143 C115.219743,57.6129643 113.942239,54.0642679 113.942239,50.1964464 C113.942239,46.7950893 114.827376,44.3663036 116.598972,42.9120714 C118.368587,41.4585 121.257174,40.7317143 125.262752,40.7317143 C127.989505,40.7317143 130.10855,41.0085536 131.617908,41.56025 C134.491963,42.6074821 135.928661,44.5579107 135.928661,47.4088929 L135.928661,47.4088929 Z" id="Fill-113" fill="#FFFFFF"></path>
            <path d="M154.343486,60.3139643 C154.343486,61.8858036 153.617541,63.1953393 152.166312,64.2425714 C150.831339,65.20325 149.30745,65.6829286 147.595303,65.6829286 L140.02011,65.6829286 L138.14745,59.1504464 L142.501798,59.1504464 C143.256147,59.1504464 143.857908,59.1299643 144.307743,59.0863571 C144.758239,59.04275 144.982826,58.8603929 144.982826,58.5399464 C144.982826,58.3357857 144.678972,57.8858393 144.069284,57.1868036 C143.024294,56.1389107 141.950239,54.7282857 140.84778,52.9522857 C139.250569,50.3920179 138.452624,48.1951429 138.452624,46.361 C138.452624,44.9649107 138.988991,43.7564643 140.063706,42.7383036 C141.252697,41.6031964 142.79178,41.0356429 144.678972,41.0356429 L151.339303,41.0356429 L153.515817,47.6553393 L149.467963,47.6553393 C148.829211,47.6553393 148.378716,47.7128214 148.117138,47.8297679 C147.856881,47.9467143 147.726092,48.1488929 147.726092,48.4402679 C147.726092,49.0236786 148.189138,49.9248929 149.119193,51.1458929 C151.03545,53.4161071 152.194716,54.857125 152.601615,55.4689464 C153.762202,57.1861429 154.343486,58.8002679 154.343486,60.3139643" id="Fill-114" fill="#FFFFFF"></path>
            <path d="M157.782972,65.6829286 L165.574826,65.6829286 L165.574826,41.0356429 L157.782972,41.0356429 L157.782972,65.6829286 Z M157.782972,39.511375 L165.574826,39.511375 L165.574826,32.5441429 L157.782972,32.5441429 L157.782972,39.511375 Z" id="Fill-115" fill="#FFFFFF"></path>
            <path d="M182.335633,58.7150357 L182.335633,47.3500893 L180.159119,47.3500893 C178.997211,47.3500893 178.098202,47.7194286 177.45945,48.4600893 C176.820697,49.2000893 176.502312,50.0788393 176.502312,51.0950179 C176.502312,52.7216964 177.162202,54.3972679 178.483303,56.1237143 C179.803083,57.8521429 181.087853,58.7150357 182.335633,58.7150357 L182.335633,58.7150357 Z M190.520514,66.5101429 C190.520514,68.97725 189.830239,70.8431071 188.452991,72.1063929 C187.073761,73.3690179 185.034642,74 182.335633,74 L172.584587,74 L170.407413,67.4252321 L178.592294,67.4252321 C180.187523,67.4252321 181.211376,67.2944107 181.661211,67.0327679 C182.110385,66.7717857 182.335633,66.2769107 182.335633,65.5521071 C178.185394,65.5521071 174.745908,63.7239107 172.017835,60.064875 C169.696,56.9588571 168.535413,53.7081429 168.535413,50.31075 C168.535413,46.8274643 169.638532,44.31675 171.84411,42.7779464 C173.497468,41.6164107 175.646239,41.0356429 178.287119,41.0356429 L190.520514,41.0356429 L190.520514,66.5101429 L190.520514,66.5101429 Z" id="Fill-116" fill="#FFFFFF"></path>
            <path d="M215.510459,65.6829286 L207.630092,65.6829286 L207.630092,50.1865357 C207.630092,49.2265179 207.281321,48.5724107 206.585101,48.2222321 C205.88822,47.873375 204.800294,47.697625 203.319339,47.697625 L202.623119,47.697625 L202.623119,65.6829286 L194.744073,65.6829286 L194.744073,41.0356429 L208.544294,41.0356429 C210.895853,41.0356429 212.64367,41.8278393 213.790385,43.4135536 C214.93578,44.9986071 215.510459,47.4630714 215.510459,50.8069464 L215.510459,65.6829286" id="Fill-117" fill="#FFFFFF"></path>
            <g id="Group-2">
                <g id="Group" fill="#FFFFFF">
                    <path d="M32.7889908,62.8968678 L32.7889908,0 L22.1926606,0 L22.1926606,57.3321627 L12.559633,57.3321627 L12.559633,20.234375 L6.77981651,20.234375 C3.587712,20.234375 1,22.8251995 1,26.0060854 L1,57.3321627 L0.996057913,57.3321627 L0.996057913,63.1119792 C0.996057913,66.2975884 3.58233377,68.8917957 6.77266672,68.8917957 L32.7929329,68.8917957 L32.7929329,63.1119792 C32.7929329,63.0399654 32.7916113,62.9682539 32.7889908,62.8968678 Z" id="Combined-Shape"></path>
                </g>
                <g id="Group" transform="translate(54.857798, 34.875000) scale(-1, -1) translate(-54.857798, -34.875000) translate(38.357798, 0.375000)" fill="#FFFFFF">
                    <path d="M32.7889908,62.8968678 L32.7889908,0 L22.1926606,0 L22.1926606,57.3321627 L12.559633,57.3321627 L12.559633,20.234375 L6.77981651,20.234375 C3.587712,20.234375 1,22.8251995 1,26.0060854 L1,57.3321627 L0.996057913,57.3321627 L0.996057913,63.1119792 C0.996057913,66.2975884 3.58233377,68.8917957 6.77266672,68.8917957 L32.7929329,68.8917957 L32.7929329,63.1119792 C32.7929329,63.0399654 32.7916113,62.9682539 32.7889908,62.8968678 Z" id="Combined-Shape"></path>
                </g>
                <ellipse id="Oval-1" fill="#FFFFFF" cx="35.6788991" cy="33.7239583" rx="12.5229358" ry="12.5260417"></ellipse>
                <g id="ball" transform="translate(23.155963, 21.197917)" fill="#4A4A4A" opacity="0.338444496">
                    <g id="Capa_1">
                        <path d="M11.8023303,23.6717135 C10.8849358,23.1871347 10.4756147,23.1831979 9.72388073,23.7561749 C9.61153211,23.7289754 9.49918349,23.7003445 9.38755046,23.6695662 C9.3006055,23.2851957 9.43943119,22.8972463 9.78255963,22.6009159 C10.2559266,22.1932827 11.068844,22.1234948 11.5275413,22.452035 C11.9239817,22.7347656 12.0177248,23.1527775 11.8023303,23.6717135 L11.8023303,23.6717135 Z M15.1684954,22.021497 C14.7262569,21.7820707 14.0421468,21.9155625 13.5709266,22.3335744 C13.1125872,22.7401339 12.9705413,23.2490491 13.1930917,23.8524464 C13.8210275,23.0507798 14.5441376,22.6857351 15.4912294,23.1867768 C15.6486606,22.5737165 15.5456147,22.2247768 15.1684954,22.021497 L15.1684954,22.021497 Z M7.74633028,22.6087894 C7.39998165,22.3375112 6.87544954,22.2666496 6.43678899,22.397994 C6.981,22.7283237 7.55455046,23.015349 8.15207339,23.2537016 C8.11092661,23.0103385 7.9749633,22.7880908 7.74633028,22.6087894 L7.74633028,22.6087894 Z M18.2852752,21.3640588 C17.7221009,21.3017865 17.3145688,21.6242426 16.9868257,22.0379598 C16.692,22.4094464 16.5256239,22.8156481 16.6698165,23.3116793 C16.7750092,23.2712381 16.8787706,23.2297232 16.9821743,23.1867768 C17.3707431,22.7308289 17.791156,22.3783103 18.411578,22.4695714 C18.5400275,22.3936994 18.6681193,22.3160379 18.7922752,22.2365871 C18.8974679,21.7645342 18.7142752,21.4120156 18.2852752,21.3640588 L18.2852752,21.3640588 Z M17.5711101,19.2421473 C17.5990183,18.6985171 17.4097431,18.3288199 16.9399541,18.18316 C16.3689083,18.0056481 15.903055,18.2529479 15.5327339,18.6759702 C15.1616972,19.1011399 14.984945,19.5853609 15.1502477,20.0853289 C15.4890826,19.7549993 15.7885596,19.3781443 16.1678257,19.1161711 C16.610422,18.8087463 17.1009633,18.9522589 17.5711101,19.2421473 L17.5711101,19.2421473 Z M19.3418532,15.2166354 C19.3028532,14.7173832 19.1847798,14.2997292 18.723578,14.0807024 C18.3135413,13.8849382 17.941789,14.0030409 17.6140459,14.2879189 C17.1603578,14.6819524 17.0082936,15.2531399 17.1836147,15.8801577 C17.8365963,14.7123728 18.4605963,14.5087351 19.3418532,15.2166354 L19.3418532,15.2166354 Z M18.7361009,19.6000342 C19.2803119,18.4143549 19.7604771,18.1194561 20.638156,18.4594487 C20.6438807,17.7361592 20.272844,17.3510729 19.7479541,17.4885015 C18.9708165,17.6910655 18.4187339,18.8427455 18.7361009,19.6000342 L18.7361009,19.6000342 Z M21.9258716,14.4733043 C21.8793578,14.2746771 21.8857982,14.0917969 21.799211,13.9797783 C21.6153028,13.7421414 21.3952569,13.3842545 21.168055,13.3674338 C20.9054312,13.3470342 20.544055,13.5807344 20.358,13.8104978 C20.0302569,14.218131 20.0195229,14.7352775 20.1265046,15.2978757 C20.6642752,14.0760499 21.0714495,13.8849382 21.9258716,14.4733043 L21.9258716,14.4733043 Z M21.3523211,9.27750223 C20.9043578,9.34478497 20.6921835,9.93028795 20.8281468,10.7273021 C21.3405138,9.87767857 21.6292569,9.84296354 22.377055,10.5802106 C22.2622018,9.73595536 21.8289083,9.2073564 21.3523211,9.27750223 L21.3523211,9.27750223 Z M11.9590459,18.8169777 C11.3704679,19.1906116 11.1339633,19.8841964 11.3819174,20.5126458 C11.8892752,19.0857507 12.4066514,18.7450424 13.6847064,19.0538988 C13.2034679,18.5177842 12.5472661,18.4444174 11.9590459,18.8169777 L11.9590459,18.8169777 Z M7.91843119,19.0524673 C7.37386239,19.4368378 7.20104587,20.126128 7.51519266,20.6586637 C7.62575229,19.4067753 8.41219266,18.9225543 9.7507156,19.2825885 C9.27341284,18.7282217 8.51309174,18.632308 7.91843119,19.0524673 L7.91843119,19.0524673 Z M15.6604679,15.0076295 C15.2690367,14.5370082 14.660422,14.426779 14.1265872,14.714878 C13.5072385,15.0491443 13.1580275,15.9639033 13.4932844,16.5683743 C13.6940092,15.2005305 14.3859908,14.7152359 15.6604679,15.0076295 L15.6604679,15.0076295 Z M19.8052018,10.3178795 C19.4796055,9.97180283 19.1357615,9.83115327 18.7239358,10.0727269 C18.2426972,10.3543839 18.0652294,11.0633579 18.2967248,11.695744 C18.5142661,10.5097068 18.8183945,10.2233973 19.8052018,10.3178795 L19.8052018,10.3178795 Z M21.682211,5.86862946 C21.6915138,5.82961979 21.7018899,5.79061012 21.7115505,5.75124256 C21.4754037,5.70471726 21.1490917,5.53722619 21.0184954,5.63421354 C20.629211,5.92410193 20.7734037,6.35356622 20.9036422,6.88359673 C20.9455046,5.99818452 21.0875505,5.83641964 21.682211,5.86862946 L21.682211,5.86862946 Z M24.9578532,12.499558 C24.9578532,19.3799338 19.3622477,24.9758534 12.4846514,24.9758534 C5.60633945,24.9758534 0.0114495413,19.3788601 0.0114495413,12.499558 C0.0114495413,8.39065848 2.0086789,4.73878051 5.08216514,2.46476711 C7.14809174,0.917622024 9.7117156,0 12.4850092,0 C15.1735046,0 17.6648532,0.862865327 19.6964312,2.32483333 C22.8786881,4.58811012 24.9578532,8.3054814 24.9578532,12.499558 L24.9578532,12.499558 Z M22.9867431,17.439471 C22.9828073,17.2386964 22.8697431,17.0143013 22.8192936,16.8042217 C22.4783119,17.6345193 22.4153394,18.581846 21.095422,18.7310848 C21.340156,19.0428043 21.4968716,19.4261012 21.6925872,19.4472165 C21.719422,19.4500796 21.7487615,19.4493638 21.7784587,19.4475744 C22.2450275,18.8234196 22.6507706,18.1509501 22.9867431,17.439471 L22.9867431,17.439471 Z M23.8404495,14.9013371 C23.9374128,14.4414524 24.0071835,13.9719048 24.0479725,13.4941257 C24.0086147,13.1899219 23.9170183,12.9082649 23.7667431,12.7049851 C23.6275596,13.4375796 23.8039541,14.3519807 22.6436147,14.5677865 C22.7101651,14.7216778 22.7641927,14.9238839 22.8747523,15.0895856 C23.0976606,15.4249256 23.4032202,15.4342307 23.673,15.1429107 C23.7366881,15.075628 23.7928624,14.9929561 23.8404495,14.9013371 L23.8404495,14.9013371 Z M12.4850092,24.1090513 C15.1198349,24.1090513 17.551789,23.2254286 19.5021468,21.7405558 C19.4134128,21.8074807 19.3246789,21.8740476 19.2334404,21.9388251 C19.2577706,21.8962366 19.2821009,21.8529323 19.3075046,21.8121332 C19.530055,21.458183 19.7654862,21.0115402 20.1089725,20.8537121 C21.0188532,20.4385632 21.1705596,19.8058192 21.0167064,18.9655007 C20.8617798,18.1183824 20.9848624,17.3714725 21.614945,16.7476756 C22.3065688,16.0623222 22.462211,15.2384665 22.267211,14.3093921 C22.1215872,13.6158073 22.3230275,12.9952314 22.7981835,12.4877478 C23.0686789,12.1978594 23.3860459,11.9369598 23.7227339,11.7272381 C23.8458165,11.6499345 23.9527982,11.5665469 24.0447523,11.4777909 C23.9774862,10.714776 23.8372294,9.97287649 23.6293486,9.25925 C23.3824679,9.1118006 23.206789,9.24028199 22.9871009,9.6146317 C22.9631284,9.60282143 22.9184037,9.59029539 22.9184037,9.57884301 C22.9234128,9.16512574 22.7402202,8.56995982 23.242211,8.45436235 C23.2833578,8.44505729 23.3209266,8.44147842 23.3567064,8.43968899 C21.7079725,4.03481696 17.4569725,0.890780506 12.4850092,0.890780506 C6.0847156,0.890780506 0.878752294,6.09875074 0.878752294,12.5002738 C0.878752294,15.3089702 1.88130275,17.8875454 3.54649541,19.8970804 C3.55544037,19.4915945 3.73684404,19.1748646 4.07066972,18.9604903 C4.63527523,18.597593 5.24711009,18.6942225 5.91726606,19.3434293 C5.32582569,19.0839613 4.85138532,18.9891213 4.37801835,19.252526 C4.02558716,19.449006 3.82736697,19.733526 3.73362385,20.1168229 C4.24992661,20.7098415 4.82598165,21.2498929 5.45105505,21.727314 C5.76806422,21.9667403 6.09652294,22.192567 6.43714679,22.3983519 C6.4346422,22.3994256 6.43321101,22.4001414 6.43034862,22.4008571 C8.19429358,23.4838229 10.2680917,24.1090513 12.4850092,24.1090513 L12.4850092,24.1090513 Z" id="Shape"></path>
                    </g>
                </g>
            </g>
        </g>
    </g>
</svg>