<?xml version="1.0" encoding="UTF-8" standalone="no"?>
<svg width="493px" height="71px" viewBox="0 0 493 71" version="1.1" xmlns="http://www.w3.org/2000/svg" xmlns:xlink="http://www.w3.org/1999/xlink" xmlns:sketch="http://www.bohemiancoding.com/sketch/ns">
    <!-- Generator: Sketch 3.3.2 (12043) - http://www.bohemiancoding.com/sketch -->
    <title>white</title>
    <desc>Created with Sketch.</desc>
    <defs></defs>
    <g id="Page-1" stroke="none" stroke-width="1" fill="none" fill-rule="evenodd" sketch:type="MSPage">
        <g id="white" sketch:type="MSLayerGroup" transform="translate(1.000000, 0.000000)">
            <path d="M0.5,39 L490.5,39" id="Line" stroke="#FFFFFF" stroke-width="2" stroke-linecap="square" sketch:type="MSShapeGroup"></path>
            <rect id="Rectangle-1-Copy" fill="#FFFFFF" sketch:type="MSShapeGroup" x="303" y="58" width="13" height="13"></rect>
            <rect id="Rectangle-1-Copy-3" fill="#FFFFFF" sketch:type="MSShapeGroup" x="239" y="58" width="13" height="13"></rect>
            <rect id="Rectangle-1-Copy-2" fill="#FFFFFF" sketch:type="MSShapeGroup" x="176" y="58" width="13" height="13"></rect>
            <path d="M5.97265625,1.85058594 C7.49610137,1.09862905 9.16600654,0.72265625 10.9824219,0.72265625 C12.7402432,0.72265625 14.3198172,1.12792563 15.7211914,1.93847656 C17.1225656,2.74902749 18.2431599,3.81835273 19.0830078,5.14648438 C20.1181692,6.79688325 20.6357422,8.58397476 20.6357422,10.5078125 C20.6357422,11.7675844 20.3671902,13.0639582 19.8300781,14.3969727 C19.2929661,15.7299871 18.602055,16.8237262 17.7573242,17.6782227 C16.9125934,18.5327191 16.0434615,19.1699198 15.1499023,19.5898438 C14.2563432,20.0097677 13.5556666,20.2490231 13.0478516,20.3076172 C12.6962873,20.3564456 12.4375008,20.4248042 12.2714844,20.5126953 C12.671877,20.9912133 13.3579053,21.6113243 14.3295898,22.3730469 C15.3012744,23.1347694 16.2607375,23.7255838 17.2080078,24.1455078 C17.2958989,24.1748048 17.4570301,24.2480463 17.6914062,24.3652344 C18.208987,24.6191419 18.7021461,24.843749 19.1708984,25.0390625 L19.5078125,25.1708984 L19.6396484,25.1855469 L20.0205078,25.3466797 C20.5283229,25.5615245 20.9970682,25.737304 21.4267578,25.8740234 C21.4365235,25.9619145 21.4414062,26.0302732 21.4414062,26.0791016 L21.4267578,26.2548828 L21.4267578,26.5185547 C21.1142563,26.5283204 20.9238285,26.5332031 20.8554688,26.5332031 C19.9570268,26.5332031 18.9145567,26.3647478 17.7280273,26.027832 C16.541498,25.6909163 15.4526417,25.2441434 14.4614258,24.6875 C13.4702099,24.1308566 12.3935605,23.3886765 11.2314453,22.4609375 C10.4501914,21.8261687 9.80078384,21.2060577 9.28320312,20.6005859 C7.57421021,20.3564441 6.03369827,19.7656297 4.66162109,18.828125 C3.28954392,17.8906203 2.23974973,16.7285226 1.51220703,15.3417969 C0.784664331,13.9550712 0.420898438,12.534187 0.420898438,11.0791016 C0.420898438,9.37010864 0.870112695,7.65137583 1.76855469,5.92285156 C2.66699668,4.19432729 4.06834985,2.83691899 5.97265625,1.85058594 L5.97265625,1.85058594 Z M8.84375,19.8535156 C9.38086206,19.9511724 9.88378672,20 10.3525391,20 C11.4267632,20 12.391109,19.833986 13.2456055,19.5019531 C14.1001019,19.1699202 14.7812475,18.740237 15.2890625,18.2128906 C15.9531283,17.5195278 16.5244117,16.542975 17.0029297,15.2832031 C17.4814477,14.0234312 17.7207031,12.4462985 17.7207031,10.5517578 C17.7207031,9.05760972 17.5009788,7.69531865 17.0615234,6.46484375 C16.7685532,5.61523013 16.2802769,4.76074648 15.5966797,3.90136719 C14.9130825,3.04198789 14.2026404,2.40967 13.465332,2.00439453 C12.7280237,1.59911907 11.7978572,1.39648438 10.6748047,1.39648438 C9.35643872,1.39648438 8.12109951,1.73827783 6.96875,2.421875 C5.81640049,3.10547217 4.85449604,4.29198374 4.08300781,5.98144531 C3.59472412,7.05566943 3.35058594,8.54979512 3.35058594,10.4638672 C3.35058594,12.026375 3.62157932,13.5522386 4.16357422,15.0415039 C4.70556912,16.5307692 5.47460439,17.7343704 6.47070312,18.6523438 C7.04687788,19.1894558 7.8378856,19.5898424 8.84375,19.8535156 L8.84375,19.8535156 Z M26.6132812,8.50097656 L27.7119141,8.50097656 L28.1953125,8.53027344 L28.5761719,8.50097656 C29.5820363,8.50097656 30.20703,8.51074209 30.4511719,8.53027344 L30.4658203,8.80859375 C30.4658203,10.1855538 30.4462893,11.5185482 30.4072266,12.8076172 C30.3779295,13.5693397 30.3632812,14.0039057 30.3632812,14.1113281 C30.3632812,15.8300867 30.419433,16.9042947 30.5317383,17.3339844 C30.6440435,17.763674 30.9077128,18.1079089 31.3227539,18.3666992 C31.737795,18.6254896 32.2382783,18.7548828 32.8242188,18.7548828 C33.5371129,18.7548828 34.2182585,18.6059585 34.8676758,18.3081055 C35.5170931,18.0102524 36.0712868,17.6464865 36.5302734,17.2167969 C36.5791018,16.8457013 36.6035156,16.4355491 36.6035156,15.9863281 C36.6035156,14.5312427 36.6181639,13.5498072 36.6474609,13.0419922 C36.6572266,12.7392563 36.6621094,12.4755871 36.6621094,12.2509766 C36.6621094,10.6689374 36.5839852,9.77539165 36.4277344,9.5703125 C36.2714836,9.36523335 35.6757864,9.20898491 34.640625,9.1015625 C34.2988264,9.0624998 34.0498055,9.02832046 33.8935547,8.99902344 C33.8154293,8.87206968 33.7763672,8.7744144 33.7763672,8.70605469 L33.8203125,8.54492188 C34.07422,8.51562485 34.323241,8.50097656 34.5673828,8.50097656 L36.8964844,8.53027344 C37.7265667,8.51074209 38.1660154,8.50097656 38.2148438,8.50097656 C38.3222662,8.50097656 38.4248042,8.50585933 38.5224609,8.515625 L38.5517578,9.58496094 C38.4833981,11.0693434 38.444336,12.9052625 38.4345703,15.0927734 L38.4052734,16.2792969 L38.4638672,18.2714844 C38.5517583,18.4277352 38.6298825,18.5205077 38.6982422,18.5498047 C38.8154303,18.5986331 39.0546857,18.6230469 39.4160156,18.6230469 L39.5478516,18.6230469 C39.6748053,18.6230469 40.0361298,18.6523435 40.6318359,18.7109375 C40.6416016,18.8378913 40.6464844,18.9306638 40.6464844,18.9892578 L40.6464844,19.1503906 C39.3378841,19.4335952 38.2783244,19.7167955 37.4677734,20 C37.1455062,20.1074224 36.8720714,20.1855466 36.6474609,20.234375 C36.5986326,19.8925764 36.5742188,19.6826176 36.5742188,19.6044922 L36.5742188,18.4179688 C36.5742188,18.3691404 36.569336,18.2373058 36.5595703,18.0224609 C36.4326166,18.110352 36.2861336,18.2177728 36.1201172,18.3447266 C35.348629,18.9404327 34.5332074,19.4433573 33.6738281,19.8535156 C33.0976534,20.1367202 32.5410183,20.2783203 32.0039062,20.2783203 C30.9785105,20.2783203 30.1435579,19.8974647 29.4990234,19.1357422 C28.8447233,18.3740196 28.5175781,17.0752045 28.5175781,15.2392578 C28.5175781,15.1416011 28.5224609,14.9658216 28.5322266,14.7119141 C28.5712893,14.2431617 28.5908203,13.9160166 28.5908203,13.7304688 C28.5908203,13.662109 28.5859375,13.4472674 28.5761719,13.0859375 C28.5664062,12.9296867 28.5615234,12.7929693 28.5615234,12.6757812 C28.5615234,12.5878902 28.5664062,12.3901383 28.5761719,12.0825195 C28.5859375,11.7749008 28.5908203,11.5576178 28.5908203,11.4306641 C28.5908203,11.2646476 28.5859375,11.1181647 28.5761719,10.9912109 L28.546875,10.2148438 L28.5615234,9.8046875 C28.5615234,9.64843672 28.4833992,9.50683657 28.3271484,9.37988281 C27.711911,9.21386636 27.309083,9.11865247 27.1186523,9.09423828 C26.9282217,9.0698241 26.7597664,9.02832061 26.6132812,8.96972656 L26.6132812,8.50097656 Z M46.9023438,1.99707031 C46.9023438,1.67480308 47.0268542,1.39648555 47.2758789,1.16210938 C47.5249036,0.927733203 47.8251936,0.810546875 48.1767578,0.810546875 C48.5380877,0.810546875 48.8554674,0.942381494 49.1289062,1.20605469 C49.4023451,1.46972788 49.5390625,1.75292817 49.5390625,2.05566406 C49.5390625,2.35839995 49.4023451,2.64404163 49.1289062,2.91259766 C48.8554674,3.18115369 48.5380877,3.31542969 48.1767578,3.31542969 C47.8154279,3.31542969 47.5126965,3.1933606 47.2685547,2.94921875 C47.0244128,2.7050769 46.9023438,2.38769727 46.9023438,1.99707031 L46.9023438,1.99707031 Z M45.671875,9.58496094 L45.6865234,9.16015625 C46.3212922,8.97460845 46.6630857,8.86718765 46.7119141,8.83789062 C47.0634783,8.68163984 47.432127,8.44238442 47.8178711,8.12011719 C48.2036152,7.79784995 48.528319,7.43652544 48.7919922,7.03613281 C48.9091803,7.01660146 49.0019528,7.00683594 49.0703125,7.00683594 L49.2460938,7.02148438 C49.2851564,7.49023672 49.3046875,7.83203018 49.3046875,8.046875 C49.3046875,8.09570337 49.294922,8.31542773 49.2753906,8.70605469 L49.2753906,9.48242188 L49.2900391,13.7011719 L49.2460938,18.1689453 C49.2363281,18.5302752 49.2949212,18.7817376 49.421875,18.9233398 C49.5488288,19.0649421 49.9248016,19.2236319 50.5498047,19.3994141 C50.9404316,19.5068365 51.2333975,19.599609 51.4287109,19.6777344 C51.458008,19.7460941 51.4726562,19.8046873 51.4726562,19.8535156 C51.4726562,19.9121097 51.4482424,19.9853511 51.3994141,20.0732422 C51.0185528,20.0634765 50.5302764,20.0390627 49.9345703,20 C49.1240194,19.9316403 48.5869154,19.8974609 48.3232422,19.8974609 C48.1962884,19.8974609 47.4150462,19.9218748 45.9794922,19.9707031 C45.686522,19.9804688 45.4033217,20.0048826 45.1298828,20.0439453 C45.0810544,20.0439453 45.0029302,20.029297 44.8955078,20 C44.8466794,19.9316403 44.8222656,19.8730471 44.8222656,19.8242188 C44.8222656,19.6874993 44.9150381,19.5800785 45.1005859,19.5019531 C45.1396486,19.4824218 45.6376905,19.3701182 46.5947266,19.1650391 C46.9072281,19.106445 47.1123042,19.0087897 47.2099609,18.8720703 C47.3759774,18.6669912 47.4589844,18.339846 47.4589844,17.890625 C47.4785157,17.1386681 47.4882812,15.0781418 47.4882812,11.7089844 C47.4882812,11.0351529 47.4589847,10.6152352 47.4003906,10.4492188 C47.3515623,10.3320307 47.222169,10.1977547 47.012207,10.0463867 C46.802245,9.89501877 46.3554722,9.74121172 45.671875,9.58496094 L45.671875,9.58496094 Z M56.2490234,19.53125 C56.4931653,19.4628903 56.7763656,19.4042971 57.0986328,19.3554688 C57.7138703,19.2675777 58.0825189,19.1650396 58.2045898,19.0478516 C58.3266608,18.9306635 58.3876953,18.6621115 58.3876953,18.2421875 L58.4169922,17.7148438 C58.4267579,17.5195303 58.4316406,17.2705093 58.4316406,16.9677734 L58.4023438,12.4707031 C58.4023438,11.8652313 58.3242195,11.4746103 58.1679688,11.2988281 C57.9042956,11.0253893 57.4160192,10.8349615 56.703125,10.7275391 L56.703125,10.2001953 C57.4160192,10.0048818 57.9628887,9.75097812 58.34375,9.43847656 C58.9003934,8.99902124 59.3691387,8.40332407 59.75,7.65136719 L60.2480469,7.66601562 C60.2773439,8.12500229 60.2919922,8.45214746 60.2919922,8.64746094 L60.2919922,9.61425781 L60.3066406,9.87792969 C60.4238287,9.7998043 60.5605461,9.70214902 60.7167969,9.58496094 C61.3027373,9.14550562 61.9033172,8.78662249 62.5185547,8.50830078 C63.1337921,8.22997908 63.6806617,8.03710991 64.1591797,7.9296875 C64.4619156,7.85156211 64.803709,7.8125 65.1845703,7.8125 C65.9853556,7.8125 66.6738252,8.0273416 67.25,8.45703125 C67.8261748,8.8867209 68.1997062,9.39208694 68.3706055,9.97314453 C68.5415048,10.5542021 68.6269531,11.7089757 68.6269531,13.4375 L68.6269531,15.6494141 C68.6269531,15.7080081 68.619629,15.9033187 68.6049805,16.2353516 C68.590332,16.5673845 68.5830078,16.94824 68.5830078,17.3779297 C68.5830078,18.0615269 68.6123044,18.4960928 68.6708984,18.6816406 C68.7197268,18.8085944 68.8466787,18.9355462 69.0517578,19.0625 C69.9892625,19.1894538 70.536132,19.3408194 70.6923828,19.5166016 L70.6923828,19.6337891 C70.6923828,19.7314458 70.6630862,19.8535149 70.6044922,20 L70.3261719,20 L68.3925781,19.9853516 L66.4882812,20.0146484 C65.7851527,20.0341798 65.1357452,20.029297 64.5400391,20 L64.4521484,19.6923828 C64.4521484,19.6337888 64.4863278,19.5556646 64.5546875,19.4580078 C64.8183607,19.3408197 65.1894507,19.2626955 65.6679688,19.2236328 C65.9511733,19.2041015 66.1464838,19.1748049 66.2539062,19.1357422 C66.3613287,19.0966795 66.4931633,19.0185553 66.6494141,18.9013672 C66.7666021,18.666991 66.8251953,18.4716805 66.8251953,18.3154297 C66.8251953,18.24707 66.8154298,18.1103526 66.7958984,17.9052734 C66.7666014,17.4560524 66.7470704,16.3378996 66.7373047,14.5507812 L66.7373047,13.7890625 L66.7666016,12.6171875 C66.7666016,11.3574156 66.5126979,10.4882836 66.0048828,10.0097656 C65.4970678,9.53124761 64.8183636,9.29199219 63.96875,9.29199219 C63.3144499,9.29199219 62.6748078,9.43603372 62.0498047,9.72412109 C61.4248016,10.0122085 60.8193389,10.4443331 60.2333984,11.0205078 C60.2138671,11.4892602 60.2041016,11.8896468 60.2041016,12.2216797 L60.2480469,15.4589844 C60.2480469,17.1484459 60.2724607,18.1835918 60.3212891,18.5644531 C60.3408204,18.7207039 60.3749998,18.8281247 60.4238281,18.8867188 C60.5019535,18.9648441 60.658202,19.0283201 60.8925781,19.0771484 C61.1269543,19.1259768 61.3979477,19.1943355 61.7055664,19.2822266 C62.0131851,19.3701176 62.2158198,19.423828 62.3134766,19.4433594 C62.50879,19.4921877 62.6406247,19.589843 62.7089844,19.7363281 L62.6943359,20.0292969 L61.15625,20.0292969 L57.9921875,19.9853516 C57.259762,20.0048829 56.7958994,20.0146484 56.6005859,20.0146484 L56.234375,20.0146484 L56.2050781,19.8242188 C56.2050781,19.755859 56.2197264,19.6582038 56.2490234,19.53125 L56.2490234,19.53125 Z M86.9091797,18.0078125 C86.9677737,18.1347663 86.9970703,18.2275388 86.9970703,18.2861328 C86.9970703,18.4326179 86.879884,18.6914044 86.6455078,19.0625 C86.3427719,19.5507837 86.0058612,19.9072254 85.6347656,20.1318359 C85.4003895,20.278321 85.0781271,20.3515625 84.6679688,20.3515625 C83.9648402,20.3515625 83.4375018,20.1367209 83.0859375,19.7070312 C82.8710927,19.4531237 82.719727,18.9990267 82.6318359,18.3447266 L80.9912109,19.4873047 C80.4150362,19.8193376 79.9755875,20.0292964 79.6728516,20.1171875 C79.1845679,20.2441413 78.5986362,20.3076172 77.9150391,20.3076172 C77.4169897,20.3076172 77.0239272,20.1586929 76.7358398,19.8608398 C76.4477525,19.5629868 76.3037109,19.1796898 76.3037109,18.7109375 C76.3037109,18.037106 76.7163045,17.23145 77.5415039,16.2939453 C78.3667033,15.3564406 79.4872976,14.5898467 80.9033203,13.9941406 C81.899419,13.5742167 82.5097645,13.3056646 82.734375,13.1884766 C82.7539063,12.8662093 82.7636719,12.5146503 82.7636719,12.1337891 C82.7636719,10.8935485 82.5903338,10.0537131 82.2436523,9.61425781 C81.8969709,9.17480249 81.4013704,8.95507812 80.7568359,8.95507812 C80.0830044,8.95507812 79.4531279,9.21874736 78.8671875,9.74609375 C78.5058576,10.0781267 78.2324228,10.7031204 78.046875,11.6210938 C77.988281,11.8750013 77.8759774,12.148436 77.7099609,12.4414062 C77.290037,12.7148451 76.9531263,12.8515625 76.6992188,12.8515625 C76.4843739,12.8515625 76.2890634,12.7880866 76.1132812,12.6611328 C76.0156245,12.5927731 75.9667969,12.5146489 75.9667969,12.4267578 C75.9667969,12.1728503 76.2377903,11.5991256 76.7797852,10.7055664 C77.3217801,9.81200725 78.005367,9.14306863 78.8305664,8.69873047 C79.6557658,8.25439231 80.3759735,8.03222656 80.9912109,8.03222656 C81.8310589,8.03222656 82.4560526,8.1079094 82.8662109,8.25927734 C83.2763692,8.41064529 83.6376937,8.67675591 83.9501953,9.05761719 C84.2626969,9.43847847 84.4531247,9.85351338 84.5214844,10.3027344 C84.5605471,10.5175792 84.5800781,11.2841731 84.5800781,12.6025391 L84.5361328,14.9316406 L84.5507812,16.6308594 C84.5507812,16.8554699 84.5458985,17.0458977 84.5361328,17.2021484 C84.5263671,17.485353 84.5214844,17.6953118 84.5214844,17.8320312 C84.5214844,18.1542985 84.6142569,18.413085 84.7998047,18.6083984 C84.9853525,18.8037119 85.2050769,18.9013672 85.4589844,18.9013672 C85.83008,18.9013672 86.1474596,18.7158222 86.4111328,18.3447266 L86.5869141,18.1103516 C86.6357424,18.0810545 86.7431632,18.0468752 86.9091797,18.0078125 L86.9091797,18.0078125 Z M82.6025391,17.5830078 C82.6708988,16.3427672 82.7050781,15.4687525 82.7050781,14.9609375 C82.7050781,14.6972643 82.6904298,14.3408226 82.6611328,13.8916016 C82.0068327,14.1259777 81.3134802,14.4824195 80.5810547,14.9609375 C79.8486292,15.4394555 79.2675803,15.9912078 78.8378906,16.6162109 C78.5253891,17.0654319 78.3691406,17.4902324 78.3691406,17.890625 C78.3691406,18.2714863 78.4985339,18.5888659 78.7573242,18.8427734 C79.0161146,19.096681 79.3408184,19.2236328 79.7314453,19.2236328 C80.0341812,19.2236328 80.4003885,19.116212 80.8300781,18.9013672 C81.3964872,18.6181626 81.9873016,18.1787139 82.6025391,17.5830078 L82.6025391,17.5830078 Z M133.743164,2.21679688 L133.904297,4.44335938 C133.962891,5.11719087 133.992188,5.57617065 133.992188,5.8203125 L133.582031,5.89355469 C132.927731,4.40917227 132.114751,3.29590215 131.143066,2.55371094 C130.171382,1.81151973 128.982429,1.44042969 127.576172,1.44042969 C125.857413,1.44042969 124.519536,1.65038853 123.5625,2.0703125 C122.175774,2.6660186 120.989263,3.7011645 120.00293,5.17578125 C119.016597,6.650398 118.523438,8.42772397 118.523438,10.5078125 C118.523438,11.7089904 118.7041,12.7880812 119.06543,13.7451172 C119.42676,14.7021532 119.937008,15.5932576 120.596191,16.418457 C121.255374,17.2436565 122.034175,17.9589813 122.932617,18.5644531 C123.518558,18.9648458 124.216793,19.2675771 125.027344,19.4726562 C125.48633,19.5800787 126.169917,19.6337891 127.078125,19.6337891 C127.664065,19.6337891 128.313473,19.5507821 129.026367,19.3847656 C129.739261,19.2187492 130.276365,18.9965834 130.637695,18.7182617 C130.999025,18.43994 131.245605,18.1250018 131.377441,17.7734375 C131.509278,17.4218732 131.575195,16.7382863 131.575195,15.7226562 C131.575195,14.0331947 131.462892,13.0493178 131.238281,12.7709961 C131.013671,12.4926744 130.30567,12.3095708 129.114258,12.2216797 L128.52832,12.1777344 L128.132812,12.1923828 C128.074218,12.1826171 127.996094,12.1679688 127.898438,12.1484375 L127.678711,11.7822266 C127.678711,11.7333982 127.71289,11.6699223 127.78125,11.5917969 C128.289065,11.5136715 129.39257,11.4746094 131.091797,11.4746094 C131.472658,11.4746094 132.092769,11.4843749 132.952148,11.5039062 L134.460938,11.5625 L135.823242,11.5478516 C136.086915,11.5478516 136.404295,11.5576171 136.775391,11.5771484 C136.84375,11.5869141 136.887695,11.6040038 136.907227,11.628418 C136.926758,11.6528322 136.936523,11.6943356 136.936523,11.7529297 C136.936523,11.8603521 136.91211,11.9970695 136.863281,12.1630859 C136.453123,12.250977 136.135743,12.2949219 135.911133,12.2949219 L134.958984,12.2802734 C134.636717,12.2802734 134.377931,12.392577 134.182617,12.6171875 C134.08496,12.7246099 134.036133,13.0908172 134.036133,13.7158203 L134.050781,15.6347656 C134.050781,16.9531316 133.997071,17.7929669 133.889648,18.1542969 C133.831054,18.3691417 133.708985,18.5620109 133.523438,18.7329102 C133.33789,18.9038094 132.947269,19.1064441 132.351562,19.3408203 C131.501949,19.6826189 130.730472,19.9121088 130.037109,20.0292969 C128.74804,20.2539074 127.502936,20.3662109 126.301758,20.3662109 C124.368154,20.3662109 122.783698,20.1196314 121.54834,19.6264648 C120.312982,19.1332983 119.24854,18.44727 118.35498,17.5683594 C117.461421,16.6894487 116.824221,15.8007857 116.443359,14.9023438 C115.867185,13.5839778 115.579102,12.2412178 115.579102,10.8740234 C115.579102,9.16503052 116.030757,7.49268396 116.934082,5.85693359 C117.837407,4.22118323 119.294912,2.89063013 121.306641,1.86523438 C122.722663,1.14257451 124.646472,0.78125 127.078125,0.78125 C128.757821,0.78125 130.132319,0.92773291 131.20166,1.22070312 C132.271001,1.51367334 133.118161,1.84570127 133.743164,2.21679688 L133.743164,2.21679688 Z M141.917969,20.0439453 L141.859375,19.8535156 C141.859375,19.7851559 141.90332,19.6826179 141.991211,19.5458984 L142.855469,19.3701172 L144.071289,19.1503906 C144.168946,19.1015623 144.237304,19.0332036 144.276367,18.9453125 C144.334961,18.8183587 144.364258,18.4423859 144.364258,17.8173828 C144.364258,14.4970537 144.344727,12.580569 144.305664,12.0678711 C144.266601,11.5551732 144.178712,11.2304694 144.041992,11.09375 C143.905273,10.9570306 143.553714,10.8496098 142.987305,10.7714844 C142.655272,10.722656 142.391603,10.6591801 142.196289,10.5810547 L142.254883,10.1416016 C143.280279,9.72167759 143.968748,9.36035308 144.320312,9.05761719 C144.808596,8.61816187 145.223631,8.04199575 145.56543,7.32910156 L146.063477,7.34375 C146.122071,7.83203369 146.151367,8.91600723 146.151367,10.5957031 L146.136719,10.8447266 C146.136719,10.9033206 146.146484,10.9960931 146.166016,11.1230469 C146.537111,10.4492154 147.000974,9.82910439 147.557617,9.26269531 L147.894531,8.92578125 C148.031251,8.76953047 148.163085,8.64746138 148.290039,8.55957031 C148.973636,8.14941201 149.481444,7.94433594 149.813477,7.94433594 C150.243166,7.94433594 150.594725,8.08837747 150.868164,8.37646484 C151.141603,8.66455222 151.27832,9.01855259 151.27832,9.43847656 C151.27832,9.77050947 151.180665,10.0292959 150.985352,10.2148438 C150.721678,10.4589856 150.418947,10.5810547 150.077148,10.5810547 C149.920898,10.5810547 149.613284,10.4980477 149.154297,10.3320312 C148.69531,10.1660148 148.392579,10.0830078 148.246094,10.0830078 C147.972655,10.0830078 147.782227,10.1269527 147.674805,10.2148438 C147.401366,10.4296886 147.069338,10.8691373 146.678711,11.5332031 C146.375975,12.0312525 146.224609,12.4902323 146.224609,12.9101562 L146.297852,15.3271484 L146.327148,18.2275391 C146.356445,18.559572 146.395508,18.7744136 146.444336,18.8720703 C146.483399,18.94043 146.581054,19.023437 146.737305,19.1210938 C147.791997,19.2089848 148.416991,19.2724607 148.612305,19.3115234 C148.749024,19.3212891 148.851562,19.3310546 148.919922,19.3408203 C149.339846,19.350586 149.632812,19.4091792 149.798828,19.5166016 C149.886719,19.5654299 149.930664,19.6386714 149.930664,19.7363281 C149.930664,19.7949222 149.891602,19.8730464 149.813477,19.9707031 L148.1875,19.9560547 L147.572266,19.9414062 L146.678711,19.9560547 L145.18457,19.9560547 L144.378906,20 L141.917969,20.0439453 Z M156.772461,8.50097656 L157.871094,8.50097656 L158.354492,8.53027344 L158.735352,8.50097656 C159.741216,8.50097656 160.36621,8.51074209 160.610352,8.53027344 L160.625,8.80859375 C160.625,10.1855538 160.605469,11.5185482 160.566406,12.8076172 C160.537109,13.5693397 160.522461,14.0039057 160.522461,14.1113281 C160.522461,15.8300867 160.578613,16.9042947 160.690918,17.3339844 C160.803223,17.763674 161.066892,18.1079089 161.481934,18.3666992 C161.896975,18.6254896 162.397458,18.7548828 162.983398,18.7548828 C163.696293,18.7548828 164.377438,18.6059585 165.026855,18.3081055 C165.676273,18.0102524 166.230466,17.6464865 166.689453,17.2167969 C166.738281,16.8457013 166.762695,16.4355491 166.762695,15.9863281 C166.762695,14.5312427 166.777344,13.5498072 166.806641,13.0419922 C166.816406,12.7392563 166.821289,12.4755871 166.821289,12.2509766 C166.821289,10.6689374 166.743165,9.77539165 166.586914,9.5703125 C166.430663,9.36523335 165.834966,9.20898491 164.799805,9.1015625 C164.458006,9.0624998 164.208985,9.02832046 164.052734,8.99902344 C163.974609,8.87206968 163.935547,8.7744144 163.935547,8.70605469 L163.979492,8.54492188 C164.2334,8.51562485 164.482421,8.50097656 164.726562,8.50097656 L167.055664,8.53027344 C167.885746,8.51074209 168.325195,8.50097656 168.374023,8.50097656 C168.481446,8.50097656 168.583984,8.50585933 168.681641,8.515625 L168.710938,9.58496094 C168.642578,11.0693434 168.603516,12.9052625 168.59375,15.0927734 L168.564453,16.2792969 L168.623047,18.2714844 C168.710938,18.4277352 168.789062,18.5205077 168.857422,18.5498047 C168.97461,18.5986331 169.213865,18.6230469 169.575195,18.6230469 L169.707031,18.6230469 C169.833985,18.6230469 170.19531,18.6523435 170.791016,18.7109375 C170.800781,18.8378913 170.805664,18.9306638 170.805664,18.9892578 L170.805664,19.1503906 C169.497064,19.4335952 168.437504,19.7167955 167.626953,20 C167.304686,20.1074224 167.031251,20.1855466 166.806641,20.234375 C166.757812,19.8925764 166.733398,19.6826176 166.733398,19.6044922 L166.733398,18.4179688 C166.733398,18.3691404 166.728516,18.2373058 166.71875,18.0224609 C166.591796,18.110352 166.445313,18.2177728 166.279297,18.3447266 C165.507809,18.9404327 164.692387,19.4433573 163.833008,19.8535156 C163.256833,20.1367202 162.700198,20.2783203 162.163086,20.2783203 C161.13769,20.2783203 160.302738,19.8974647 159.658203,19.1357422 C159.003903,18.3740196 158.676758,17.0752045 158.676758,15.2392578 C158.676758,15.1416011 158.681641,14.9658216 158.691406,14.7119141 C158.730469,14.2431617 158.75,13.9160166 158.75,13.7304688 C158.75,13.662109 158.745117,13.4472674 158.735352,13.0859375 C158.725586,12.9296867 158.720703,12.7929693 158.720703,12.6757812 C158.720703,12.5878902 158.725586,12.3901383 158.735352,12.0825195 C158.745117,11.7749008 158.75,11.5576178 158.75,11.4306641 C158.75,11.2646476 158.745117,11.1181647 158.735352,10.9912109 L158.706055,10.2148438 L158.720703,9.8046875 C158.720703,9.64843672 158.642579,9.50683657 158.486328,9.37988281 C157.871091,9.21386636 157.468263,9.11865247 157.277832,9.09423828 C157.087401,9.0698241 156.918946,9.02832061 156.772461,8.96972656 L156.772461,8.50097656 Z M175.538086,19.53125 C175.782228,19.4628903 176.065428,19.4042971 176.387695,19.3554688 C177.002933,19.2675777 177.371581,19.1650396 177.493652,19.0478516 C177.615723,18.9306635 177.676758,18.6621115 177.676758,18.2421875 L177.706055,17.7148438 C177.71582,17.5195303 177.720703,17.2705093 177.720703,16.9677734 L177.691406,12.4707031 C177.691406,11.8652313 177.613282,11.4746103 177.457031,11.2988281 C177.193358,11.0253893 176.705082,10.8349615 175.992188,10.7275391 L175.992188,10.2001953 C176.705082,10.0048818 177.251951,9.75097812 177.632812,9.43847656 C178.189456,8.99902124 178.658201,8.40332407 179.039062,7.65136719 L179.537109,7.66601562 C179.566406,8.12500229 179.581055,8.45214746 179.581055,8.64746094 L179.581055,9.61425781 L179.595703,9.87792969 C179.712891,9.7998043 179.849609,9.70214902 180.005859,9.58496094 C180.5918,9.14550562 181.19238,8.78662249 181.807617,8.50830078 C182.422855,8.22997908 182.969724,8.03710991 183.448242,7.9296875 C183.750978,7.85156211 184.092772,7.8125 184.473633,7.8125 C185.274418,7.8125 185.962888,8.0273416 186.539062,8.45703125 C187.115237,8.8867209 187.488769,9.39208694 187.659668,9.97314453 C187.830567,10.5542021 187.916016,11.7089757 187.916016,13.4375 L187.916016,15.6494141 C187.916016,15.7080081 187.908691,15.9033187 187.894043,16.2353516 C187.879394,16.5673845 187.87207,16.94824 187.87207,17.3779297 C187.87207,18.0615269 187.901367,18.4960928 187.959961,18.6816406 C188.008789,18.8085944 188.135741,18.9355462 188.34082,19.0625 C189.278325,19.1894538 189.825195,19.3408194 189.981445,19.5166016 L189.981445,19.6337891 C189.981445,19.7314458 189.952149,19.8535149 189.893555,20 L189.615234,20 L187.681641,19.9853516 L185.777344,20.0146484 C185.074215,20.0341798 184.424808,20.029297 183.829102,20 L183.741211,19.6923828 C183.741211,19.6337888 183.77539,19.5556646 183.84375,19.4580078 C184.107423,19.3408197 184.478513,19.2626955 184.957031,19.2236328 C185.240236,19.2041015 185.435546,19.1748049 185.542969,19.1357422 C185.650391,19.0966795 185.782226,19.0185553 185.938477,18.9013672 C186.055665,18.666991 186.114258,18.4716805 186.114258,18.3154297 C186.114258,18.24707 186.104492,18.1103526 186.084961,17.9052734 C186.055664,17.4560524 186.036133,16.3378996 186.026367,14.5507812 L186.026367,13.7890625 L186.055664,12.6171875 C186.055664,11.3574156 185.80176,10.4882836 185.293945,10.0097656 C184.78613,9.53124761 184.107426,9.29199219 183.257812,9.29199219 C182.603512,9.29199219 181.96387,9.43603372 181.338867,9.72412109 C180.713864,10.0122085 180.108401,10.4443331 179.522461,11.0205078 C179.50293,11.4892602 179.493164,11.8896468 179.493164,12.2216797 L179.537109,15.4589844 C179.537109,17.1484459 179.561523,18.1835918 179.610352,18.5644531 C179.629883,18.7207039 179.664062,18.8281247 179.712891,18.8867188 C179.791016,18.9648441 179.947264,19.0283201 180.181641,19.0771484 C180.416017,19.1259768 180.68701,19.1943355 180.994629,19.2822266 C181.302248,19.3701176 181.504882,19.423828 181.602539,19.4433594 C181.797853,19.4921877 181.929687,19.589843 181.998047,19.7363281 L181.983398,20.0292969 L180.445312,20.0292969 L177.28125,19.9853516 C176.548824,20.0048829 176.084962,20.0146484 175.889648,20.0146484 L175.523438,20.0146484 L175.494141,19.8242188 C175.494141,19.755859 175.508789,19.6582038 175.538086,19.53125 L175.538086,19.53125 Z M204.982422,9.36523438 L204.99707,8.94042969 L204.982422,7.2265625 L204.99707,3.98925781 C204.99707,3.09081582 204.899415,2.51953247 204.704102,2.27539062 C204.508788,2.03124878 203.937505,1.78222783 202.990234,1.52832031 C202.921875,1.50878896 202.814454,1.47949238 202.667969,1.44042969 L202.667969,1.27929688 C202.667969,1.18164014 202.677734,1.07421934 202.697266,0.95703125 C204.025397,0.820311816 205.167964,0.590821924 206.125,0.268554688 L206.87207,0.25390625 C206.911133,0.91797207 206.930664,1.66015215 206.930664,2.48046875 L206.87207,8.12011719 L206.974609,14.4775391 L206.930664,17.8613281 C206.930664,18.554691 206.979492,18.9453121 207.077148,19.0332031 C207.272462,19.2285166 207.702145,19.3310546 208.366211,19.3408203 C208.50293,19.3408203 208.688475,19.3505858 208.922852,19.3701172 L208.922852,19.6337891 C208.922852,19.7021488 208.917969,19.7753902 208.908203,19.8535156 C208.605467,19.9218753 208.29297,19.9853513 207.970703,20.0439453 L205.84668,20.4541016 C205.534178,20.5126956 205.285157,20.5419922 205.099609,20.5419922 L205.099609,19.1357422 C204.933593,19.1845706 204.674806,19.2822258 204.323242,19.4287109 C202.799797,20.0732454 201.398444,20.3955078 200.119141,20.3955078 C199.347652,20.3955078 198.561527,20.1440455 197.760742,19.6411133 C196.959957,19.1381811 196.344729,18.4375045 195.915039,17.5390625 C195.485349,16.6406205 195.270508,15.7226609 195.270508,14.7851562 C195.270508,13.9453083 195.412108,13.1420937 195.695312,12.3754883 C195.978517,11.6088829 196.349607,10.9716822 196.808594,10.4638672 C197.101564,10.1318343 197.516599,9.80224773 198.053711,9.47509766 C198.590823,9.14794758 199.035154,8.94043013 199.386719,8.85253906 C200.255864,8.62792856 200.836913,8.515625 201.129883,8.515625 C202.448249,8.515625 203.532222,8.71093555 204.381836,9.1015625 C204.645509,9.22851626 204.845702,9.31640601 204.982422,9.36523438 L204.982422,9.36523438 Z M204.99707,18.4179688 C205.036133,17.7636686 205.055664,16.4160258 205.055664,14.375 C205.055664,12.6464757 204.975098,11.5551781 204.813965,11.1010742 C204.652831,10.6469704 204.250003,10.2172872 203.605469,9.81201172 C202.960934,9.40673625 202.238285,9.20410156 201.4375,9.20410156 C200.314448,9.20410156 199.362309,9.63866753 198.581055,10.5078125 C197.799801,11.3769575 197.40918,12.6611243 197.40918,14.3603516 C197.40918,15.8544997 197.831539,17.045894 198.67627,17.9345703 C199.521,18.8232466 200.573236,19.2675781 201.833008,19.2675781 C202.555668,19.2675781 203.214841,19.1699229 203.810547,18.9746094 C204.406253,18.7792959 204.801757,18.5937509 204.99707,18.4179688 L204.99707,18.4179688 Z M213.845703,19.6484375 C214.988287,19.4433583 215.64746,19.2871099 215.823242,19.1796875 C215.930665,19.1113278 215.984375,18.9550793 215.984375,18.7109375 L215.969727,17.7441406 L215.984375,16.0302734 L215.955078,11.6650391 L215.969727,10.0390625 L215.969727,8.88183594 L216.013672,7.4609375 C216.013672,5.23436387 215.991699,3.90381077 215.947754,3.46923828 C215.903808,3.0346658 215.81836,2.76367241 215.691406,2.65625 C215.45703,2.4316395 214.812505,2.19726685 213.757812,1.953125 L213.757812,1.87988281 C213.757812,1.8115231 213.767578,1.71386782 213.787109,1.58691406 C213.923829,1.56738271 214.055663,1.5429689 214.182617,1.51367188 C214.309571,1.48437485 214.43164,1.4648438 214.548828,1.45507812 C215.710943,1.12304521 216.555661,0.800782812 217.083008,0.48828125 L217.800781,0.48828125 C217.820313,0.761720117 217.830078,1.62596929 217.830078,3.08105469 L217.81543,4.94140625 L217.830078,7.34375 L217.771484,10.3027344 C217.771484,10.4785165 217.78125,10.6738271 217.800781,10.8886719 C218.416019,10.1757777 218.865233,9.70214961 219.148438,9.46777344 C219.656253,9.05761514 220.198239,8.73291135 220.774414,8.49365234 C221.350589,8.25439333 221.956052,8.13476562 222.59082,8.13476562 C223.791998,8.13476562 224.773434,8.64257305 225.535156,9.65820312 C225.974612,10.2539092 226.194336,11.0986273 226.194336,12.1923828 L226.150391,13.6865234 L226.165039,14.5214844 L226.106445,15.9716797 C226.067383,17.1728576 226.047852,17.8857411 226.047852,18.1103516 C226.047852,18.3642591 226.057617,18.7060525 226.077148,19.1357422 L226.912109,19.3261719 C227.468753,19.44336 227.898436,19.5507808 228.201172,19.6484375 L228.186523,20.1025391 L225.066406,20.0146484 C224.890624,20.0146484 224.412113,20.0341795 223.630859,20.0732422 C223.152341,20.0927735 222.874024,20.1025391 222.795898,20.1025391 L222.473633,20.1025391 C222.424804,20.014648 222.400391,19.9414065 222.400391,19.8828125 L222.400391,19.7509766 C222.53711,19.5751944 222.791014,19.4580081 223.162109,19.3994141 L224.041016,19.1943359 C224.158204,19.0966792 224.226562,18.9941412 224.246094,18.8867188 C224.285156,18.6328112 224.329101,17.3730582 224.37793,15.1074219 L224.407227,14.0234375 C224.446289,12.8808537 224.3584,11.9335975 224.143555,11.1816406 C224.006835,10.6640599 223.69678,10.2514664 223.213379,9.94384766 C222.729978,9.63622893 222.170902,9.48242188 221.536133,9.48242188 C221.008786,9.48242188 220.510745,9.59472544 220.041992,9.81933594 C219.719725,9.98535239 219.333987,10.2734354 218.884766,10.6835938 C218.435545,11.0937521 218.123048,11.445311 217.947266,11.7382812 C217.830078,11.9335947 217.771484,12.2558571 217.771484,12.7050781 L217.786133,13.7304688 L217.756836,14.7998047 C217.756836,14.8876958 217.771484,15.4980412 217.800781,16.6308594 L217.786133,17.5683594 L217.81543,18.59375 C217.825195,18.7402351 217.839844,18.8476559 217.859375,18.9160156 L219.924805,19.4140625 C220.032227,19.4433595 220.193358,19.5019527 220.408203,19.5898438 L220.452148,19.7509766 C220.452148,19.7998049 220.427735,19.8779292 220.378906,19.9853516 C220.095702,19.9951172 219.88086,20 219.734375,20 L218.591797,19.9853516 L216.072266,20.0146484 L214.182617,20.0732422 C214.08496,20.0634765 213.938478,20.053711 213.743164,20.0439453 L213.728516,19.9414062 C213.728516,19.8632809 213.767578,19.7656256 213.845703,19.6484375 L213.845703,19.6484375 Z M233.666016,14.1113281 C233.666016,13.4472623 233.805174,12.7368202 234.083496,11.9799805 C234.361818,11.2231407 234.784177,10.5444366 235.350586,9.94384766 C235.916995,9.34325872 236.517575,8.89648584 237.152344,8.60351562 C238.04102,8.19335732 239.124994,7.98828125 240.404297,7.98828125 C242.230478,7.98828125 243.756342,8.613275 244.981934,9.86328125 C246.207526,11.1132875 246.820312,12.6171787 246.820312,14.375 C246.820312,15.9375078 246.178229,17.3315368 244.894043,18.5571289 C243.609857,19.782721 241.986338,20.3955078 240.023438,20.3955078 C238.812494,20.3955078 237.669927,20.0781282 236.595703,19.4433594 C235.794918,18.9648414 235.106448,18.2568406 234.530273,17.3193359 C233.954099,16.3818313 233.666016,15.312506 233.666016,14.1113281 L233.666016,14.1113281 Z M240.140625,19.8242188 C240.882816,19.8242188 241.598141,19.6240254 242.286621,19.2236328 C242.975101,18.8232402 243.524412,18.1811568 243.93457,17.2973633 C244.344729,16.4135698 244.549805,15.3906308 244.549805,14.2285156 C244.549805,13.4667931 244.391115,12.5830128 244.07373,11.5771484 C243.756346,10.571284 243.26807,9.81689705 242.608887,9.31396484 C241.949704,8.81103264 241.175786,8.55957031 240.287109,8.55957031 C239.642575,8.55957031 238.985843,8.71093599 238.316895,9.01367188 C237.647946,9.31640776 237.081545,9.89745664 236.617676,10.7568359 C236.153806,11.6162152 235.921875,12.8369062 235.921875,14.4189453 C235.921875,16.1962979 236.324703,17.5414993 237.130371,18.4545898 C237.936039,19.3676803 238.939447,19.8242188 240.140625,19.8242188 L240.140625,19.8242188 Z M263.505859,12.265625 L257.631836,12.3095703 L256.518555,12.3095703 C256.069334,12.3095703 255.610354,12.3291014 255.141602,12.3681641 C255.05371,12.6611343 255.009766,12.8613276 255.009766,12.96875 L255.024414,13.1152344 L255.024414,13.2617188 L255.009766,13.9794922 C255.009766,14.5751983 255.197752,15.3051715 255.57373,16.1694336 C255.949709,17.0336957 256.486813,17.6928688 257.185059,18.1469727 C257.883304,18.6010765 258.754878,18.8427733 259.799805,18.8720703 C260.356448,18.8427733 260.80078,18.7744146 261.132812,18.6669922 C261.464845,18.5595698 261.933591,18.3105488 262.539062,17.9199219 L263.59375,17.0556641 L263.681641,17.6416016 C263.681641,17.7099613 263.676758,17.7832027 263.666992,17.8613281 C263.227537,18.4179715 262.670902,18.9062479 261.99707,19.3261719 C261.323239,19.7460958 260.639652,20.05371 259.946289,20.2490234 C259.614256,20.3369145 259.067387,20.3808594 258.305664,20.3808594 C257.612301,20.3808594 256.928714,20.2392592 256.254883,19.9560547 C255.258784,19.526365 254.475101,18.835454 253.903809,17.8833008 C253.332517,16.9311476 253.046875,15.776374 253.046875,14.4189453 C253.046875,13.9892557 253.127441,13.4375034 253.288574,12.7636719 C253.449708,12.0898404 253.740232,11.3720741 254.160156,10.6103516 C254.443361,10.0927708 254.790037,9.66797041 255.200195,9.3359375 C255.786136,8.86718516 256.298826,8.54003999 256.738281,8.35449219 C257.37305,8.09081899 258.110347,7.95898438 258.950195,7.95898438 C259.858403,7.95898438 260.600583,8.12499834 261.176758,8.45703125 C261.958012,8.89648657 262.541502,9.46288716 262.927246,10.15625 C263.31299,10.8496128 263.505859,11.4843721 263.505859,12.0605469 L263.505859,12.265625 Z M255.332031,11.7382812 L256.020508,11.7382812 C256.518557,11.7382812 258.002917,11.660157 260.473633,11.5039062 C260.86426,11.4843749 261.103515,11.4453128 261.191406,11.3867188 C261.367188,11.2011709 261.455078,11.035157 261.455078,10.8886719 C261.455078,10.585936 261.357423,10.2417011 261.162109,9.85595703 C260.966796,9.47021292 260.666506,9.17236433 260.26123,8.96240234 C259.855955,8.75244036 259.384768,8.64746094 258.847656,8.64746094 C257.714838,8.64746094 256.806644,9.07226138 256.123047,9.921875 C255.5957,10.5664095 255.332031,11.1718722 255.332031,11.7382812 L255.332031,11.7382812 Z M273.790039,8.58886719 C276.221692,8.64746123 277.515624,8.67675781 277.671875,8.67675781 C277.691406,8.89160264 277.701172,9.05273384 277.701172,9.16015625 C277.701172,9.28711001 277.686524,9.47753779 277.657227,9.73144531 C277.413085,9.77050801 277.164064,9.79003906 276.910156,9.79003906 L276.353516,9.79003906 C275.142572,9.79003906 274.302737,9.83398394 273.833984,9.921875 C273.814453,10.1464855 273.804688,10.3173822 273.804688,10.4345703 C273.804688,10.4833987 273.80957,10.5566401 273.819336,10.6542969 C273.868164,12.1875077 273.892578,13.1152328 273.892578,13.4375 L273.863281,17.2021484 C273.863281,17.7587918 273.956054,18.2226544 274.141602,18.59375 C274.249024,18.8085948 274.449217,18.9794916 274.742188,19.1064453 C274.927735,19.1943364 275.37695,19.2822261 276.089844,19.3701172 C276.626956,19.4482426 276.98828,19.501953 277.173828,19.53125 C277.173828,19.7363292 277.15918,19.8925776 277.129883,20 L276.924805,20.0146484 C276.456052,19.9853514 275.845707,19.9609376 275.09375,19.9414062 L274.009766,19.8974609 L270.318359,20.0146484 L269.834961,20.0146484 L269.820312,19.5605469 C269.966798,19.5312499 270.074218,19.506836 270.142578,19.4873047 C270.982426,19.3310539 271.524413,19.1552744 271.768555,18.9599609 C271.866211,18.8818355 271.93457,18.7402354 271.973633,18.5351562 C271.993164,18.4179682 272.00293,17.8710986 272.00293,16.8945312 C272.00293,14.1113142 271.978516,11.8896567 271.929688,10.2294922 C271.67578,10.1513668 271.285159,10.1025392 270.757812,10.0830078 C270.562499,10.0830078 270.254885,10.0634768 269.834961,10.0244141 L269.805664,9.86328125 C269.805664,9.74609316 269.854492,9.64843789 269.952148,9.5703125 C269.991211,9.5312498 270.401363,9.32617373 271.182617,8.95507812 C271.485353,8.81835869 271.700195,8.64746196 271.827148,8.44238281 C271.895508,8.3349604 271.93457,8.11035327 271.944336,7.76855469 C271.954102,7.61230391 271.983398,7.3437519 272.032227,6.96289062 C272.149415,5.95702622 272.242187,5.33691523 272.310547,5.10253906 C272.486329,4.44823892 272.781736,3.79638997 273.196777,3.14697266 C273.611818,2.49755535 274.112302,1.92871338 274.698242,1.44042969 C275.127932,1.08886543 275.613767,0.825196191 276.155762,0.649414062 C276.697757,0.473631934 277.315426,0.385742188 278.008789,0.385742188 C278.936528,0.385742188 279.615232,0.537107861 280.044922,0.83984375 C280.337892,1.0449229 280.484375,1.30859214 280.484375,1.63085938 C280.484375,1.90429824 280.381837,2.1386709 280.176758,2.33398438 C279.971679,2.52929785 279.717775,2.62695312 279.415039,2.62695312 C279.043943,2.62695312 278.643557,2.53418062 278.213867,2.34863281 C277.403316,2.02636558 276.944336,1.85058608 276.836914,1.82128906 C276.651366,1.77246069 276.460938,1.74804688 276.265625,1.74804688 C275.728513,1.74804688 275.237795,1.9189436 274.793457,2.26074219 C274.349119,2.60254077 274.06836,3.02245845 273.951172,3.52050781 C273.833984,4.01855718 273.775391,5.13671006 273.775391,6.875 C273.775391,7.50000313 273.780273,8.07128647 273.790039,8.58886719 L273.790039,8.58886719 Z M293.683594,12.265625 L287.80957,12.3095703 L286.696289,12.3095703 C286.247068,12.3095703 285.788088,12.3291014 285.319336,12.3681641 C285.231445,12.6611343 285.1875,12.8613276 285.1875,12.96875 L285.202148,13.1152344 L285.202148,13.2617188 L285.1875,13.9794922 C285.1875,14.5751983 285.375486,15.3051715 285.751465,16.1694336 C286.127443,17.0336957 286.664547,17.6928688 287.362793,18.1469727 C288.061039,18.6010765 288.932612,18.8427733 289.977539,18.8720703 C290.534182,18.8427733 290.978514,18.7744146 291.310547,18.6669922 C291.64258,18.5595698 292.111325,18.3105488 292.716797,17.9199219 L293.771484,17.0556641 L293.859375,17.6416016 C293.859375,17.7099613 293.854492,17.7832027 293.844727,17.8613281 C293.405271,18.4179715 292.848636,18.9062479 292.174805,19.3261719 C291.500973,19.7460958 290.817386,20.05371 290.124023,20.2490234 C289.791991,20.3369145 289.245121,20.3808594 288.483398,20.3808594 C287.790036,20.3808594 287.106449,20.2392592 286.432617,19.9560547 C285.436518,19.526365 284.652835,18.835454 284.081543,17.8833008 C283.510251,16.9311476 283.224609,15.776374 283.224609,14.4189453 C283.224609,13.9892557 283.305175,13.4375034 283.466309,12.7636719 C283.627442,12.0898404 283.917967,11.3720741 284.337891,10.6103516 C284.621095,10.0927708 284.967771,9.66797041 285.37793,9.3359375 C285.96387,8.86718516 286.47656,8.54003999 286.916016,8.35449219 C287.550784,8.09081899 288.288082,7.95898438 289.12793,7.95898438 C290.036137,7.95898438 290.778317,8.12499834 291.354492,8.45703125 C292.135746,8.89648657 292.719236,9.46288716 293.10498,10.15625 C293.490725,10.8496128 293.683594,11.4843721 293.683594,12.0605469 L293.683594,12.265625 Z M285.509766,11.7382812 L286.198242,11.7382812 C286.696292,11.7382812 288.180652,11.660157 290.651367,11.5039062 C291.041994,11.4843749 291.28125,11.4453128 291.369141,11.3867188 C291.544923,11.2011709 291.632812,11.035157 291.632812,10.8886719 C291.632812,10.585936 291.535157,10.2417011 291.339844,9.85595703 C291.14453,9.47021292 290.84424,9.17236433 290.438965,8.96240234 C290.033689,8.75244036 289.562503,8.64746094 289.025391,8.64746094 C287.892572,8.64746094 286.984378,9.07226138 286.300781,9.921875 C285.773435,10.5664095 285.509766,11.1718722 285.509766,11.7382812 L285.509766,11.7382812 Z M299.177734,20.0439453 L299.119141,19.8535156 C299.119141,19.7851559 299.163085,19.6826179 299.250977,19.5458984 L300.115234,19.3701172 L301.331055,19.1503906 C301.428711,19.1015623 301.49707,19.0332036 301.536133,18.9453125 C301.594727,18.8183587 301.624023,18.4423859 301.624023,17.8173828 C301.624023,14.4970537 301.604492,12.580569 301.56543,12.0678711 C301.526367,11.5551732 301.438477,11.2304694 301.301758,11.09375 C301.165038,10.9570306 300.813479,10.8496098 300.24707,10.7714844 C299.915037,10.722656 299.651368,10.6591801 299.456055,10.5810547 L299.514648,10.1416016 C300.540044,9.72167759 301.228514,9.36035308 301.580078,9.05761719 C302.068362,8.61816187 302.483397,8.04199575 302.825195,7.32910156 L303.323242,7.34375 C303.381836,7.83203369 303.411133,8.91600723 303.411133,10.5957031 L303.396484,10.8447266 C303.396484,10.9033206 303.40625,10.9960931 303.425781,11.1230469 C303.796877,10.4492154 304.260739,9.82910439 304.817383,9.26269531 L305.154297,8.92578125 C305.291016,8.76953047 305.422851,8.64746138 305.549805,8.55957031 C306.233402,8.14941201 306.741209,7.94433594 307.073242,7.94433594 C307.502932,7.94433594 307.854491,8.08837747 308.12793,8.37646484 C308.401369,8.66455222 308.538086,9.01855259 308.538086,9.43847656 C308.538086,9.77050947 308.440431,10.0292959 308.245117,10.2148438 C307.981444,10.4589856 307.678713,10.5810547 307.336914,10.5810547 C307.180663,10.5810547 306.873049,10.4980477 306.414062,10.3320312 C305.955076,10.1660148 305.652344,10.0830078 305.505859,10.0830078 C305.232421,10.0830078 305.041993,10.1269527 304.93457,10.2148438 C304.661131,10.4296886 304.329104,10.8691373 303.938477,11.5332031 C303.635741,12.0312525 303.484375,12.4902323 303.484375,12.9101562 L303.557617,15.3271484 L303.586914,18.2275391 C303.616211,18.559572 303.655273,18.7744136 303.704102,18.8720703 C303.743164,18.94043 303.84082,19.023437 303.99707,19.1210938 C305.051763,19.2089848 305.676757,19.2724607 305.87207,19.3115234 C306.00879,19.3212891 306.111328,19.3310546 306.179688,19.3408203 C306.599611,19.350586 306.892577,19.4091792 307.058594,19.5166016 C307.146485,19.5654299 307.19043,19.6386714 307.19043,19.7363281 C307.19043,19.7949222 307.151368,19.8730464 307.073242,19.9707031 L305.447266,19.9560547 L304.832031,19.9414062 L303.938477,19.9560547 L302.444336,19.9560547 L301.638672,20 L299.177734,20.0439453 Z M335.420898,19.53125 C335.557618,19.4531246 335.679687,19.4140625 335.787109,19.4140625 L336.124023,19.4140625 C336.192383,19.4140625 336.309569,19.4091797 336.475586,19.3994141 C337.227543,19.3310543 337.671874,19.2626957 337.808594,19.1943359 C338.150392,19.0087881 338.443358,18.6865257 338.6875,18.2275391 C339.195315,17.2314403 339.766598,15.8203216 340.401367,13.9941406 C340.704103,13.1249957 340.894531,12.5976572 340.972656,12.4121094 C341.216798,11.8261689 341.451171,11.2109407 341.675781,10.5664062 L343.052734,6.71386719 C343.267579,6.10839541 343.785152,4.72169053 344.605469,2.55371094 C344.810548,2.0068332 345.059569,1.27441865 345.352539,0.356445312 L345.777344,0.327148438 L346.290039,0.341796875 C346.709963,1.17187915 347.081053,2.0654249 347.40332,3.02246094 C347.579102,3.53027598 347.867185,4.28710435 348.267578,5.29296875 L350.494141,11.3134766 L351.680664,14.5800781 C352.305667,16.4355562 352.715819,17.5756815 352.911133,18.0004883 C353.106446,18.4252951 353.287109,18.706054 353.453125,18.8427734 C353.501953,18.8818361 353.685057,18.9404293 354.002441,19.0185547 C354.319826,19.0966801 354.541992,19.1552732 354.668945,19.1943359 C355.118166,19.3212897 355.430663,19.4287105 355.606445,19.5166016 C355.645508,19.624024 355.665039,19.707031 355.665039,19.765625 C355.665039,19.8144534 355.650391,19.8876948 355.621094,19.9853516 C355.308592,19.9951172 355.088868,20 354.961914,20 C354.463865,20 353.584967,19.9853517 352.325195,19.9560547 L350.860352,19.9121094 L349.087891,19.9414062 C348.970703,19.9414062 348.851075,19.9340821 348.729004,19.9194336 C348.606933,19.9047851 348.501954,19.8974609 348.414062,19.8974609 L348.091797,19.8974609 C347.984374,19.8876953 347.886719,19.8583987 347.798828,19.8095703 C347.798828,19.6728509 347.823242,19.5410163 347.87207,19.4140625 C347.989258,19.3554685 348.096679,19.3212891 348.194336,19.3115234 L349.732422,19.2089844 C350.132815,19.189453 350.435546,19.1357426 350.640625,19.0478516 C350.699219,18.8720694 350.728516,18.7402348 350.728516,18.6523438 C350.728516,18.4765616 350.601564,18.0224646 350.347656,17.2900391 C350.171874,16.8017554 350.018067,16.3378928 349.88623,15.8984375 C349.754394,15.4589822 349.23438,14.0136841 348.326172,11.5625 C347.925779,11.4941403 347.57422,11.4599609 347.271484,11.4599609 L344.136719,11.4892578 L343.213867,11.4746094 C342.881834,11.4746094 342.515627,11.4990232 342.115234,11.5478516 C341.988281,11.8408218 341.905274,12.0507806 341.866211,12.1777344 L340.577148,16.2060547 C340.030271,17.7392655 339.756836,18.5839836 339.756836,18.7402344 C339.756836,18.8281254 339.800781,18.9746083 339.888672,19.1796875 C340.093751,19.2382815 340.367186,19.2919919 340.708984,19.3408203 L342.701172,19.5166016 C342.808594,19.6044926 342.862305,19.6826168 342.862305,19.7509766 C342.862305,19.7998049 342.847656,19.8730464 342.818359,19.9707031 C342.378904,19.9804688 342.041993,19.9853516 341.807617,19.9853516 C341.026363,19.9853516 340.118169,19.9609377 339.083008,19.9121094 C338.60449,19.892578 338.262696,19.8828125 338.057617,19.8828125 C337.852538,19.8828125 337.496096,19.892578 336.988281,19.9121094 C336.656248,19.9316407 336.416993,19.9414062 336.270508,19.9414062 C336.036132,19.9414062 335.7334,19.926758 335.362305,19.8974609 L335.362305,19.8095703 C335.362305,19.7412106 335.381836,19.6484381 335.420898,19.53125 L335.420898,19.53125 Z M342.408203,10.7421875 C343.45313,10.8007815 344.644525,10.8300781 345.982422,10.8300781 C346.744144,10.8300781 347.413083,10.8056643 347.989258,10.7568359 C347.891601,10.3759747 347.779298,10.0195329 347.652344,9.6875 C347.017575,7.98827275 346.666016,7.05078213 346.597656,6.875 L345.264648,3.49121094 L345.118164,3.22753906 C345.05957,3.34472715 344.844728,3.84765181 344.473633,4.73632812 C343.84863,6.25977324 343.399415,7.44628481 343.125977,8.29589844 C342.999023,8.67675972 342.867188,9.0551739 342.730469,9.43115234 C342.593749,9.80713079 342.508301,10.0708 342.474121,10.222168 C342.439941,10.3735359 342.388672,10.527343 342.320312,10.6835938 L342.408203,10.7421875 Z M360.5,20.0439453 L360.441406,19.8535156 C360.441406,19.7851559 360.485351,19.6826179 360.573242,19.5458984 L361.4375,19.3701172 L362.65332,19.1503906 C362.750977,19.1015623 362.819336,19.0332036 362.858398,18.9453125 C362.916992,18.8183587 362.946289,18.4423859 362.946289,17.8173828 C362.946289,14.4970537 362.926758,12.580569 362.887695,12.0678711 C362.848633,11.5551732 362.760743,11.2304694 362.624023,11.09375 C362.487304,10.9570306 362.135745,10.8496098 361.569336,10.7714844 C361.237303,10.722656 360.973634,10.6591801 360.77832,10.5810547 L360.836914,10.1416016 C361.86231,9.72167759 362.550779,9.36035308 362.902344,9.05761719 C363.390627,8.61816187 363.805662,8.04199575 364.147461,7.32910156 L364.645508,7.34375 C364.704102,7.83203369 364.733398,8.91600723 364.733398,10.5957031 L364.71875,10.8447266 C364.71875,10.9033206 364.728516,10.9960931 364.748047,11.1230469 C365.119142,10.4492154 365.583005,9.82910439 366.139648,9.26269531 L366.476562,8.92578125 C366.613282,8.76953047 366.745117,8.64746138 366.87207,8.55957031 C367.555667,8.14941201 368.063475,7.94433594 368.395508,7.94433594 C368.825197,7.94433594 369.176756,8.08837747 369.450195,8.37646484 C369.723634,8.66455222 369.860352,9.01855259 369.860352,9.43847656 C369.860352,9.77050947 369.762696,10.0292959 369.567383,10.2148438 C369.30371,10.4589856 369.000978,10.5810547 368.65918,10.5810547 C368.502929,10.5810547 368.195315,10.4980477 367.736328,10.3320312 C367.277341,10.1660148 366.97461,10.0830078 366.828125,10.0830078 C366.554686,10.0830078 366.364258,10.1269527 366.256836,10.2148438 C365.983397,10.4296886 365.651369,10.8691373 365.260742,11.5332031 C364.958006,12.0312525 364.806641,12.4902323 364.806641,12.9101562 L364.879883,15.3271484 L364.90918,18.2275391 C364.938477,18.559572 364.977539,18.7744136 365.026367,18.8720703 C365.06543,18.94043 365.163085,19.023437 365.319336,19.1210938 C366.374029,19.2089848 366.999022,19.2724607 367.194336,19.3115234 C367.331055,19.3212891 367.433593,19.3310546 367.501953,19.3408203 C367.921877,19.350586 368.214843,19.4091792 368.380859,19.5166016 C368.46875,19.5654299 368.512695,19.6386714 368.512695,19.7363281 C368.512695,19.7949222 368.473633,19.8730464 368.395508,19.9707031 L366.769531,19.9560547 L366.154297,19.9414062 L365.260742,19.9560547 L363.766602,19.9560547 L362.960938,20 L360.5,20.0439453 Z M385.608398,17.3193359 L385.623047,18.2714844 C384.861324,19.0820353 384.109379,19.6484359 383.367188,19.9707031 C382.624996,20.2929704 381.750982,20.4541016 380.745117,20.4541016 C379.651362,20.4541016 378.665043,20.1684599 377.786133,19.597168 C376.907222,19.025876 376.230959,18.2177787 375.757324,17.1728516 C375.283689,16.1279245 375.046875,15.1025441 375.046875,14.0966797 C375.046875,12.9931585 375.332517,11.9506885 375.903809,10.9692383 C376.475101,9.98778806 377.231929,9.25537351 378.174316,8.77197266 C379.116704,8.2885718 380.300774,8.046875 381.726562,8.046875 C383.093757,8.046875 384.133785,8.28124766 384.84668,8.75 C385.247072,9.02343887 385.447266,9.37499785 385.447266,9.8046875 C385.447266,10.1171891 385.344728,10.3759755 385.139648,10.5810547 C384.934569,10.7861338 384.6709,10.8886719 384.348633,10.8886719 C383.860349,10.8886719 383.323245,10.5859405 382.737305,9.98046875 C382.375975,9.60937314 382.04883,9.35302805 381.755859,9.21142578 C381.462889,9.06982351 381.135744,8.99902344 380.774414,8.99902344 C379.905269,8.99902344 379.18262,9.35546519 378.606445,10.0683594 C377.80566,11.0839895 377.405273,12.3583908 377.405273,13.8916016 C377.405273,15.4736407 377.815426,16.7333938 378.635742,17.6708984 C379.456059,18.6084031 380.41308,19.0771484 381.506836,19.0771484 C382.268558,19.0771484 382.944821,18.952638 383.535645,18.7036133 C384.126468,18.4545886 384.817379,17.9931674 385.608398,17.3193359 L385.608398,17.3193359 Z M390.560547,19.6484375 C391.703131,19.4433583 392.362304,19.2871099 392.538086,19.1796875 C392.645508,19.1113278 392.699219,18.9550793 392.699219,18.7109375 L392.68457,17.7441406 L392.699219,16.0302734 L392.669922,11.6650391 L392.68457,10.0390625 L392.68457,8.88183594 L392.728516,7.4609375 C392.728516,5.23436387 392.706543,3.90381077 392.662598,3.46923828 C392.618652,3.0346658 392.533204,2.76367241 392.40625,2.65625 C392.171874,2.4316395 391.527349,2.19726685 390.472656,1.953125 L390.472656,1.87988281 C390.472656,1.8115231 390.482422,1.71386782 390.501953,1.58691406 C390.638673,1.56738271 390.770507,1.5429689 390.897461,1.51367188 C391.024415,1.48437485 391.146484,1.4648438 391.263672,1.45507812 C392.425787,1.12304521 393.270505,0.800782812 393.797852,0.48828125 L394.515625,0.48828125 C394.535156,0.761720117 394.544922,1.62596929 394.544922,3.08105469 L394.530273,4.94140625 L394.544922,7.34375 L394.486328,10.3027344 C394.486328,10.4785165 394.496094,10.6738271 394.515625,10.8886719 C395.130862,10.1757777 395.580077,9.70214961 395.863281,9.46777344 C396.371096,9.05761514 396.913083,8.73291135 397.489258,8.49365234 C398.065433,8.25439333 398.670895,8.13476562 399.305664,8.13476562 C400.506842,8.13476562 401.488277,8.64257305 402.25,9.65820312 C402.689455,10.2539092 402.90918,11.0986273 402.90918,12.1923828 L402.865234,13.6865234 L402.879883,14.5214844 L402.821289,15.9716797 C402.782226,17.1728576 402.762695,17.8857411 402.762695,18.1103516 C402.762695,18.3642591 402.772461,18.7060525 402.791992,19.1357422 L403.626953,19.3261719 C404.183597,19.44336 404.61328,19.5507808 404.916016,19.6484375 L404.901367,20.1025391 L401.78125,20.0146484 C401.605468,20.0146484 401.126957,20.0341795 400.345703,20.0732422 C399.867185,20.0927735 399.588868,20.1025391 399.510742,20.1025391 L399.188477,20.1025391 C399.139648,20.014648 399.115234,19.9414065 399.115234,19.8828125 L399.115234,19.7509766 C399.251954,19.5751944 399.505858,19.4580081 399.876953,19.3994141 L400.755859,19.1943359 C400.873047,19.0966792 400.941406,18.9941412 400.960938,18.8867188 C401,18.6328112 401.043945,17.3730582 401.092773,15.1074219 L401.12207,14.0234375 C401.161133,12.8808537 401.073243,11.9335975 400.858398,11.1816406 C400.721679,10.6640599 400.411624,10.2514664 399.928223,9.94384766 C399.444822,9.63622893 398.885745,9.48242188 398.250977,9.48242188 C397.72363,9.48242188 397.225588,9.59472544 396.756836,9.81933594 C396.434569,9.98535239 396.04883,10.2734354 395.599609,10.6835938 C395.150388,11.0937521 394.837892,11.445311 394.662109,11.7382812 C394.544921,11.9335947 394.486328,12.2558571 394.486328,12.7050781 L394.500977,13.7304688 L394.47168,14.7998047 C394.47168,14.8876958 394.486328,15.4980412 394.515625,16.6308594 L394.500977,17.5683594 L394.530273,18.59375 C394.540039,18.7402351 394.554687,18.8476559 394.574219,18.9160156 L396.639648,19.4140625 C396.747071,19.4433595 396.908202,19.5019527 397.123047,19.5898438 L397.166992,19.7509766 C397.166992,19.7998049 397.142578,19.8779292 397.09375,19.9853516 C396.810545,19.9951172 396.595704,20 396.449219,20 L395.306641,19.9853516 L392.787109,20.0146484 L390.897461,20.0732422 C390.799804,20.0634765 390.653321,20.053711 390.458008,20.0439453 L390.443359,19.9414062 C390.443359,19.8632809 390.482421,19.7656256 390.560547,19.6484375 L390.560547,19.6484375 Z M411.391602,1.99707031 C411.391602,1.67480308 411.516112,1.39648555 411.765137,1.16210938 C412.014161,0.927733203 412.314451,0.810546875 412.666016,0.810546875 C413.027346,0.810546875 413.344725,0.942381494 413.618164,1.20605469 C413.891603,1.46972788 414.02832,1.75292817 414.02832,2.05566406 C414.02832,2.35839995 413.891603,2.64404163 413.618164,2.91259766 C413.344725,3.18115369 413.027346,3.31542969 412.666016,3.31542969 C412.304686,3.31542969 412.001954,3.1933606 411.757812,2.94921875 C411.513671,2.7050769 411.391602,2.38769727 411.391602,1.99707031 L411.391602,1.99707031 Z M410.161133,9.58496094 L410.175781,9.16015625 C410.81055,8.97460845 411.152344,8.86718765 411.201172,8.83789062 C411.552736,8.68163984 411.921385,8.44238442 412.307129,8.12011719 C412.692873,7.79784995 413.017577,7.43652544 413.28125,7.03613281 C413.398438,7.01660146 413.491211,7.00683594 413.55957,7.00683594 L413.735352,7.02148438 C413.774414,7.49023672 413.793945,7.83203018 413.793945,8.046875 C413.793945,8.09570337 413.78418,8.31542773 413.764648,8.70605469 L413.764648,9.48242188 L413.779297,13.7011719 L413.735352,18.1689453 C413.725586,18.5302752 413.784179,18.7817376 413.911133,18.9233398 C414.038087,19.0649421 414.414059,19.2236319 415.039062,19.3994141 C415.429689,19.5068365 415.722655,19.599609 415.917969,19.6777344 C415.947266,19.7460941 415.961914,19.8046873 415.961914,19.8535156 C415.961914,19.9121097 415.9375,19.9853511 415.888672,20.0732422 C415.507811,20.0634765 415.019534,20.0390627 414.423828,20 C413.613277,19.9316403 413.076173,19.8974609 412.8125,19.8974609 C412.685546,19.8974609 411.904304,19.9218748 410.46875,19.9707031 C410.17578,19.9804688 409.892579,20.0048826 409.619141,20.0439453 C409.570312,20.0439453 409.492188,20.029297 409.384766,20 C409.335937,19.9316403 409.311523,19.8730471 409.311523,19.8242188 C409.311523,19.6874993 409.404296,19.5800785 409.589844,19.5019531 C409.628906,19.4824218 410.126948,19.3701182 411.083984,19.1650391 C411.396486,19.106445 411.601562,19.0087897 411.699219,18.8720703 C411.865235,18.6669912 411.948242,18.339846 411.948242,17.890625 C411.967774,17.1386681 411.977539,15.0781418 411.977539,11.7089844 C411.977539,11.0351529 411.948242,10.6152352 411.889648,10.4492188 C411.84082,10.3320307 411.711427,10.1977547 411.501465,10.0463867 C411.291503,9.89501877 410.84473,9.74121172 410.161133,9.58496094 L410.161133,9.58496094 Z M424.371094,5.52734375 L424.825195,5.54199219 L424.883789,6.93359375 L424.854492,8.73535156 C425.04004,8.74511724 425.157226,8.75 425.206055,8.75 C425.459962,8.75 425.943356,8.73046895 426.65625,8.69140625 C427.115237,8.66210923 427.554685,8.64746094 427.974609,8.64746094 C428.169923,8.64746094 428.462889,8.6523437 428.853516,8.66210938 C428.873047,8.85742285 428.882812,9.01367129 428.882812,9.13085938 C428.882812,9.25781313 428.853516,9.45800645 428.794922,9.73144531 L428.545898,9.73144531 L426.275391,9.8046875 L425.147461,9.83398438 L424.883789,9.86328125 C424.805664,10.1074231 424.766602,10.3906234 424.766602,10.7128906 L424.810547,12.9101562 L424.78125,16.7773438 C424.78125,17.7929738 424.913085,18.4667952 425.176758,18.7988281 C425.430665,19.1406267 425.811521,19.3115234 426.319336,19.3115234 C426.573243,19.3115234 427.051754,19.2333992 427.754883,19.0771484 C427.969728,19.0283201 428.257811,18.8671889 428.619141,18.59375 L428.750977,18.59375 C428.838868,18.59375 428.909668,18.6206052 428.963379,18.6743164 C429.01709,18.7280276 429.043945,18.7988277 429.043945,18.8867188 L429.029297,18.9892578 C428.609373,19.4482445 428.128421,19.7827138 427.586426,19.9926758 C427.044431,20.2026378 426.324223,20.3076172 425.425781,20.3076172 C424.791012,20.3076172 424.266115,20.1611343 423.851074,19.8681641 C423.436033,19.5751938 423.169922,19.2285176 423.052734,18.828125 C422.935546,18.4277324 422.876953,17.5537177 422.876953,16.2060547 L422.935547,12.9101562 L422.920898,11.328125 L422.920898,10.7421875 C422.920898,10.4687486 422.911133,10.1953139 422.891602,9.921875 L422.642578,9.90722656 L421.441406,9.95117188 L421.324219,9.96582031 C421.216796,9.96582031 421.136231,9.94140649 421.08252,9.89257812 C421.028808,9.84374976 421.001953,9.78515659 421.001953,9.71679688 C421.001953,9.59960879 421.038574,9.5043949 421.111816,9.43115234 C421.185059,9.35790979 421.407225,9.24316484 421.77832,9.08691406 C422.032228,8.97949165 422.327635,8.77685696 422.664551,8.47900391 C423.001467,8.18115085 423.287108,7.85156431 423.521484,7.49023438 C423.638672,7.2949209 423.804686,6.92383086 424.019531,6.37695312 C424.175782,5.9765605 424.292968,5.69336021 424.371094,5.52734375 L424.371094,5.52734375 Z M444.52832,12.265625 L438.654297,12.3095703 L437.541016,12.3095703 C437.091795,12.3095703 436.632815,12.3291014 436.164062,12.3681641 C436.076171,12.6611343 436.032227,12.8613276 436.032227,12.96875 L436.046875,13.1152344 L436.046875,13.2617188 L436.032227,13.9794922 C436.032227,14.5751983 436.220213,15.3051715 436.596191,16.1694336 C436.97217,17.0336957 437.509274,17.6928688 438.20752,18.1469727 C438.905765,18.6010765 439.777339,18.8427733 440.822266,18.8720703 C441.378909,18.8427733 441.823241,18.7744146 442.155273,18.6669922 C442.487306,18.5595698 442.956052,18.3105488 443.561523,17.9199219 L444.616211,17.0556641 L444.704102,17.6416016 C444.704102,17.7099613 444.699219,17.7832027 444.689453,17.8613281 C444.249998,18.4179715 443.693363,18.9062479 443.019531,19.3261719 C442.3457,19.7460958 441.662113,20.05371 440.96875,20.2490234 C440.636717,20.3369145 440.089848,20.3808594 439.328125,20.3808594 C438.634762,20.3808594 437.951175,20.2392592 437.277344,19.9560547 C436.281245,19.526365 435.497561,18.835454 434.92627,17.8833008 C434.354978,16.9311476 434.069336,15.776374 434.069336,14.4189453 C434.069336,13.9892557 434.149902,13.4375034 434.311035,12.7636719 C434.472169,12.0898404 434.762693,11.3720741 435.182617,10.6103516 C435.465822,10.0927708 435.812498,9.66797041 436.222656,9.3359375 C436.808597,8.86718516 437.321287,8.54003999 437.760742,8.35449219 C438.395511,8.09081899 439.132808,7.95898438 439.972656,7.95898438 C440.880864,7.95898438 441.623044,8.12499834 442.199219,8.45703125 C442.980473,8.89648657 443.563963,9.46288716 443.949707,10.15625 C444.335451,10.8496128 444.52832,11.4843721 444.52832,12.0605469 L444.52832,12.265625 Z M436.354492,11.7382812 L437.042969,11.7382812 C437.541018,11.7382812 439.025378,11.660157 441.496094,11.5039062 C441.886721,11.4843749 442.125976,11.4453128 442.213867,11.3867188 C442.389649,11.2011709 442.477539,11.035157 442.477539,10.8886719 C442.477539,10.585936 442.379884,10.2417011 442.18457,9.85595703 C441.989257,9.47021292 441.688967,9.17236433 441.283691,8.96240234 C440.878416,8.75244036 440.407229,8.64746094 439.870117,8.64746094 C438.737299,8.64746094 437.829105,9.07226138 437.145508,9.921875 C436.618161,10.5664095 436.354492,11.1718722 436.354492,11.7382812 L436.354492,11.7382812 Z M461.125977,17.3193359 L461.140625,18.2714844 C460.378902,19.0820353 459.626957,19.6484359 458.884766,19.9707031 C458.142574,20.2929704 457.26856,20.4541016 456.262695,20.4541016 C455.16894,20.4541016 454.182622,20.1684599 453.303711,19.597168 C452.4248,19.025876 451.748538,18.2177787 451.274902,17.1728516 C450.801267,16.1279245 450.564453,15.1025441 450.564453,14.0966797 C450.564453,12.9931585 450.850095,11.9506885 451.421387,10.9692383 C451.992679,9.98778806 452.749507,9.25537351 453.691895,8.77197266 C454.634282,8.2885718 455.818352,8.046875 457.244141,8.046875 C458.611335,8.046875 459.651364,8.28124766 460.364258,8.75 C460.76465,9.02343887 460.964844,9.37499785 460.964844,9.8046875 C460.964844,10.1171891 460.862306,10.3759755 460.657227,10.5810547 C460.452147,10.7861338 460.188478,10.8886719 459.866211,10.8886719 C459.377927,10.8886719 458.840823,10.5859405 458.254883,9.98046875 C457.893553,9.60937314 457.566408,9.35302805 457.273438,9.21142578 C456.980467,9.06982351 456.653322,8.99902344 456.291992,8.99902344 C455.422847,8.99902344 454.700198,9.35546519 454.124023,10.0683594 C453.323238,11.0839895 452.922852,12.3583908 452.922852,13.8916016 C452.922852,15.4736407 453.333004,16.7333938 454.15332,17.6708984 C454.973637,18.6084031 455.930659,19.0771484 457.024414,19.0771484 C457.786137,19.0771484 458.462399,18.952638 459.053223,18.7036133 C459.644046,18.4545886 460.334957,17.9931674 461.125977,17.3193359 L461.125977,17.3193359 Z M470.106445,5.52734375 L470.560547,5.54199219 L470.619141,6.93359375 L470.589844,8.73535156 C470.775392,8.74511724 470.892578,8.75 470.941406,8.75 C471.195314,8.75 471.678707,8.73046895 472.391602,8.69140625 C472.850588,8.66210923 473.290037,8.64746094 473.709961,8.64746094 C473.905274,8.64746094 474.19824,8.6523437 474.588867,8.66210938 C474.608399,8.85742285 474.618164,9.01367129 474.618164,9.13085938 C474.618164,9.25781313 474.588867,9.45800645 474.530273,9.73144531 L474.28125,9.73144531 L472.010742,9.8046875 L470.882812,9.83398438 L470.619141,9.86328125 C470.541015,10.1074231 470.501953,10.3906234 470.501953,10.7128906 L470.545898,12.9101562 L470.516602,16.7773438 C470.516602,17.7929738 470.648436,18.4667952 470.912109,18.7988281 C471.166017,19.1406267 471.546872,19.3115234 472.054688,19.3115234 C472.308595,19.3115234 472.787106,19.2333992 473.490234,19.0771484 C473.705079,19.0283201 473.993162,18.8671889 474.354492,18.59375 L474.486328,18.59375 C474.574219,18.59375 474.645019,18.6206052 474.69873,18.6743164 C474.752442,18.7280276 474.779297,18.7988277 474.779297,18.8867188 L474.764648,18.9892578 C474.344724,19.4482445 473.863772,19.7827138 473.321777,19.9926758 C472.779782,20.2026378 472.059575,20.3076172 471.161133,20.3076172 C470.526364,20.3076172 470.001467,20.1611343 469.586426,19.8681641 C469.171385,19.5751938 468.905274,19.2285176 468.788086,18.828125 C468.670898,18.4277324 468.612305,17.5537177 468.612305,16.2060547 L468.670898,12.9101562 L468.65625,11.328125 L468.65625,10.7421875 C468.65625,10.4687486 468.646484,10.1953139 468.626953,9.921875 L468.37793,9.90722656 L467.176758,9.95117188 L467.05957,9.96582031 C466.952148,9.96582031 466.871582,9.94140649 466.817871,9.89257812 C466.76416,9.84374976 466.737305,9.78515659 466.737305,9.71679688 C466.737305,9.59960879 466.773925,9.5043949 466.847168,9.43115234 C466.920411,9.35790979 467.142576,9.24316484 467.513672,9.08691406 C467.767579,8.97949165 468.062987,8.77685696 468.399902,8.47900391 C468.736818,8.18115085 469.02246,7.85156431 469.256836,7.49023438 C469.374024,7.2949209 469.540038,6.92383086 469.754883,6.37695312 C469.911134,5.9765605 470.02832,5.69336021 470.106445,5.52734375 L470.106445,5.52734375 Z M480.786133,16.2792969 C481.147463,17.2070359 481.420898,17.8076158 481.606445,18.0810547 C481.977541,18.6376981 482.421872,19.0698227 482.939453,19.3774414 C483.457034,19.6850601 484.018552,19.8388672 484.624023,19.8388672 C485.180667,19.8388672 485.732419,19.5996118 486.279297,19.1210938 C486.669924,18.7597638 486.865234,18.3398461 486.865234,17.8613281 C486.865234,17.2265593 486.635744,16.6406277 486.176758,16.1035156 C485.717771,15.5761692 484.846198,15.0708032 483.562012,14.5874023 C482.277826,14.1040015 481.416018,13.5888699 480.976562,13.0419922 C480.537107,12.4951145 480.317383,11.8701207 480.317383,11.1669922 C480.317383,10.5029264 480.498045,9.91699473 480.859375,9.40917969 C481.220705,8.90136465 481.718747,8.5180677 482.353516,8.25927734 C482.988284,8.00048699 483.574216,7.87109375 484.111328,7.87109375 C484.804691,7.87109375 485.427243,7.92480415 485.979004,8.03222656 C486.530764,8.13964897 487.006834,8.30566294 487.407227,8.53027344 C487.485352,9.0283228 487.548828,9.76073735 487.597656,10.7275391 L487.626953,11.1962891 C487.499999,11.2060547 487.392579,11.2109375 487.304688,11.2109375 L487.099609,11.2109375 C486.806639,10.4003866 486.359866,9.75830315 485.759277,9.28466797 C485.158688,8.81103279 484.565433,8.57421875 483.979492,8.57421875 C483.393552,8.57421875 482.919924,8.75243962 482.558594,9.10888672 C482.197264,9.46533381 482.016602,9.93163774 482.016602,10.5078125 C482.016602,10.9472678 482.163084,11.3378889 482.456055,11.6796875 C482.749025,12.0214861 483.435053,12.4121072 484.51416,12.8515625 C485.593267,13.2910178 486.379392,13.6987286 486.872559,14.074707 C487.365725,14.4506855 487.729491,14.9072239 487.963867,15.4443359 C488.198243,15.981448 488.31543,16.4941382 488.31543,16.9824219 C488.31543,17.6562534 488.093264,18.2861299 487.648926,18.8720703 C487.204588,19.4580107 486.647953,19.8706043 485.979004,20.1098633 C485.310055,20.3491223 484.711917,20.46875 484.18457,20.46875 C482.94433,20.46875 481.801763,20.2392601 480.756836,19.7802734 C480.659179,19.702148 480.605469,19.5556651 480.595703,19.3408203 C480.595703,19.2529292 480.585938,19.1113291 480.566406,18.9160156 C480.410155,17.5976497 480.332031,16.8164075 480.332031,16.5722656 C480.332031,16.4550775 480.356445,16.3769533 480.405273,16.3378906 C480.454102,16.2988279 480.581054,16.2792969 480.786133,16.2792969 L480.786133,16.2792969 Z" id="Quina--Grundhoefer--" fill="#FFFFFF" sketch:type="MSShapeGroup"></path>
        </g>
    </g>
</svg>